<svg width="218" height="76" viewBox="0 0 218 76" fill="none" xmlns="http://www.w3.org/2000/svg">
<g clip-path="url(#clip0_24_1300)">
<path fill-rule="evenodd" clip-rule="evenodd" d="M5.21791 23.0304H84.9773L90.1952 38.0001L84.9773 52.9698H5.21791L0 38.0001L5.21791 23.0304Z" fill="url(#paint0_linear_24_1300)"/>
<path fill-rule="evenodd" clip-rule="evenodd" d="M6.23438 24.5204L1.55859 37.9999L6.23438 51.4794H83.9608L88.6366 37.9999L83.9608 24.5204H6.23438Z" fill="#9B9B9B"/>
<path fill-rule="evenodd" clip-rule="evenodd" d="M7.25085 25.9427L3.11719 37.9998L7.25085 50.0568H82.8766L87.078 37.9998L82.8766 25.9427H7.25085Z" fill="url(#paint1_radial_24_1300)"/>
<path fill-rule="evenodd" clip-rule="evenodd" d="M6.23449 24.5206H83.961L84.9774 23.0304H5.21802L6.23449 24.5206Z" fill="url(#paint2_linear_24_1300)"/>
<path fill-rule="evenodd" clip-rule="evenodd" d="M83.9601 24.5204H6.23364L7.25012 25.9428H82.8759L83.9601 24.5204Z" fill="url(#paint3_linear_24_1300)"/>
<path fill-rule="evenodd" clip-rule="evenodd" d="M82.8759 50.0573H7.25012L6.23364 51.4797H83.9601L82.8759 50.0573Z" fill="url(#paint4_linear_24_1300)"/>
<path fill-rule="evenodd" clip-rule="evenodd" d="M83.961 51.4794H6.23449L5.21802 52.9696H84.9774L83.961 51.4794Z" fill="url(#paint5_linear_24_1300)"/>
<path fill-rule="evenodd" clip-rule="evenodd" d="M5.01461 47.9572L1.5586 38H0L3.45602 47.9572L5.21791 52.9697L6.23438 51.4795L5.01461 47.9572Z" fill="url(#paint6_linear_24_1300)"/>
<path fill-rule="evenodd" clip-rule="evenodd" d="M1.55859 38L5.01461 47.9572L6.23438 51.4795L7.25085 50.057L6.5732 47.9572L3.11719 38H1.55859Z" fill="url(#paint7_linear_24_1300)"/>
<path fill-rule="evenodd" clip-rule="evenodd" d="M1.5586 38.0001L5.01461 28.0429L6.23438 24.5206L5.21791 23.0304L3.45602 28.0429L0 38.0001H1.5586Z" fill="url(#paint8_linear_24_1300)"/>
<path fill-rule="evenodd" clip-rule="evenodd" d="M6.23438 24.5204L5.01461 28.0427L1.55859 37.9999H3.11719L6.5732 28.0427L7.25085 25.9428L6.23438 24.5204Z" fill="url(#paint9_linear_24_1300)"/>
<path fill-rule="evenodd" clip-rule="evenodd" d="M85.1797 47.9572L88.6357 38H90.1943L86.7383 47.9572L84.9764 52.9697L83.96 51.4795L85.1797 47.9572Z" fill="url(#paint10_linear_24_1300)"/>
<path fill-rule="evenodd" clip-rule="evenodd" d="M88.6367 38L85.1807 47.9572L83.961 51.4795L82.8767 50.057L83.6221 47.9572L87.0781 38H88.6367Z" fill="#7B7B7B"/>
<path fill-rule="evenodd" clip-rule="evenodd" d="M88.6357 38.0001L85.1797 28.0429L83.96 24.5206L84.9764 23.0304L86.7383 28.0429L90.1943 38.0001H88.6357Z" fill="#B4B4B4"/>
<path fill-rule="evenodd" clip-rule="evenodd" d="M83.961 24.5204L85.1807 28.0427L88.6367 37.9999H87.0781L83.6221 28.0427L82.8767 25.9428L83.961 24.5204Z" fill="url(#paint11_linear_24_1300)"/>
<path fill-rule="evenodd" clip-rule="evenodd" d="M45.0635 51.0735C57.7355 51.0735 69.7299 51.209 80.369 51.4799H9.82568C20.4648 51.209 32.4592 51.0735 45.0635 51.0735Z" fill="white"/>
<path fill-rule="evenodd" clip-rule="evenodd" d="M133.023 23.0304H212.783L218.001 38.0001L212.783 52.9698H133.023L127.805 38.0001L133.023 23.0304Z" fill="url(#paint12_linear_24_1300)"/>
<path fill-rule="evenodd" clip-rule="evenodd" d="M134.04 24.5204L129.364 37.9999L134.04 51.4794H211.766L216.442 37.9999L211.766 24.5204H134.04Z" fill="#9B9B9B"/>
<path fill-rule="evenodd" clip-rule="evenodd" d="M135.124 25.9427L130.923 37.9998L135.124 50.0568H210.75L214.883 37.9998L210.75 25.9427H135.124Z" fill="url(#paint13_radial_24_1300)"/>
<path fill-rule="evenodd" clip-rule="evenodd" d="M134.039 24.5206H211.765L212.782 23.0304H133.022L134.039 24.5206Z" fill="url(#paint14_linear_24_1300)"/>
<path fill-rule="evenodd" clip-rule="evenodd" d="M211.766 24.5204H134.039L135.123 25.9428H210.749L211.766 24.5204Z" fill="url(#paint15_linear_24_1300)"/>
<path fill-rule="evenodd" clip-rule="evenodd" d="M210.749 50.0573H135.123L134.039 51.4797H211.766L210.749 50.0573Z" fill="url(#paint16_linear_24_1300)"/>
<path fill-rule="evenodd" clip-rule="evenodd" d="M211.765 51.4794H134.039L133.022 52.9696H212.782L211.765 51.4794Z" fill="url(#paint17_linear_24_1300)"/>
<path fill-rule="evenodd" clip-rule="evenodd" d="M132.82 47.9572L129.364 38H127.805L131.261 47.9572L133.023 52.9697L134.04 51.4795L132.82 47.9572Z" fill="url(#paint18_linear_24_1300)"/>
<path fill-rule="evenodd" clip-rule="evenodd" d="M129.364 38L132.82 47.9572L134.04 51.4795L135.124 50.057L134.379 47.9572L130.923 38H129.364Z" fill="#7B7B7B"/>
<path fill-rule="evenodd" clip-rule="evenodd" d="M129.364 38.0001L132.82 28.0429L134.04 24.5206L133.023 23.0304L131.261 28.0429L127.805 38.0001H129.364Z" fill="#B4B4B4"/>
<path fill-rule="evenodd" clip-rule="evenodd" d="M134.04 24.5204L132.82 28.0427L129.364 37.9999H130.923L134.379 28.0427L135.124 25.9428L134.04 24.5204Z" fill="url(#paint19_linear_24_1300)"/>
<path fill-rule="evenodd" clip-rule="evenodd" d="M172.936 51.0735C185.608 51.0735 197.603 51.209 208.242 51.4799H137.631C148.27 51.209 160.264 51.0735 172.936 51.0735Z" fill="white"/>
<path fill-rule="evenodd" clip-rule="evenodd" d="M16.6695 3.38684H201.329L213.323 38L201.329 72.6132H16.6695L4.67505 38L16.6695 3.38684Z" fill="url(#paint20_linear_24_1300)"/>
<path fill-rule="evenodd" clip-rule="evenodd" d="M19.1095 6.77344L8.26709 37.9998L19.1095 69.2262H198.89L209.732 37.9998L198.89 6.77344H19.1095Z" fill="#9B9B9B"/>
<path fill-rule="evenodd" clip-rule="evenodd" d="M21.4815 10.1604L11.8589 38L21.4815 65.8395H196.519L206.141 38L196.519 10.1604H21.4815Z" fill="url(#paint21_linear_24_1300)"/>
<path fill-rule="evenodd" clip-rule="evenodd" d="M196.519 65.8394H21.4819L19.1101 69.2262H198.891L196.519 65.8394Z" fill="url(#paint22_linear_24_1300)"/>
<path fill-rule="evenodd" clip-rule="evenodd" d="M198.89 69.2262H19.1095L16.6699 72.613H201.33L198.89 69.2262Z" fill="url(#paint23_linear_24_1300)"/>
<path fill-rule="evenodd" clip-rule="evenodd" d="M16.1951 60.9626L8.26659 38H4.67505L12.6036 60.9626L16.6695 72.6132L19.109 69.2264L16.1951 60.9626Z" fill="url(#paint24_linear_24_1300)"/>
<path fill-rule="evenodd" clip-rule="evenodd" d="M8.26709 38L16.1956 60.9626L19.1095 69.2264L21.4813 65.8396L19.8549 60.9626L11.8586 38H8.26709Z" fill="url(#paint25_linear_24_1300)"/>
<path fill-rule="evenodd" clip-rule="evenodd" d="M8.26659 38L16.1951 15.0375L19.109 6.77365L16.6695 3.38684L12.6036 15.0375L4.67505 38H8.26659Z" fill="url(#paint26_linear_24_1300)"/>
<path fill-rule="evenodd" clip-rule="evenodd" d="M19.1095 6.77344L16.1956 15.0373L8.26709 37.9998H11.8586L19.8549 15.0373L21.4813 10.1602L19.1095 6.77344Z" fill="url(#paint27_linear_24_1300)"/>
<path fill-rule="evenodd" clip-rule="evenodd" d="M201.805 60.9626L209.733 38H213.325L205.396 60.9626L201.33 72.6132L198.891 69.2264L201.805 60.9626Z" fill="url(#paint28_linear_24_1300)"/>
<path fill-rule="evenodd" clip-rule="evenodd" d="M209.733 38L201.804 60.9626L198.891 69.2264L196.519 65.8396L198.213 60.9626L206.141 38H209.733Z" fill="url(#paint29_linear_24_1300)"/>
<path fill-rule="evenodd" clip-rule="evenodd" d="M209.733 38L201.805 15.0375L198.891 6.77365L201.33 3.38684L205.396 15.0375L213.325 38H209.733Z" fill="url(#paint30_linear_24_1300)"/>
<path fill-rule="evenodd" clip-rule="evenodd" d="M198.891 6.77344L201.804 15.0373L209.733 37.9998H206.141L198.213 15.0373L196.519 10.1602L198.891 6.77344Z" fill="url(#paint31_linear_24_1300)"/>
<path fill-rule="evenodd" clip-rule="evenodd" d="M21.481 10.1604L23.9205 13.5472H194.078L196.518 10.1604H21.481Z" fill="url(#paint32_linear_24_1300)"/>
<path fill-rule="evenodd" clip-rule="evenodd" d="M15.4504 38H11.8589L21.4815 10.1604L23.9211 13.5472L15.4504 38Z" fill="url(#paint33_linear_24_1300)"/>
<path fill-rule="evenodd" clip-rule="evenodd" d="M21.481 65.8392L23.9205 62.4524H194.078L196.518 65.8392H21.481Z" fill="url(#paint34_linear_24_1300)"/>
<path fill-rule="evenodd" clip-rule="evenodd" d="M15.4504 38H11.8589L21.4815 65.8396L23.9211 62.4528L15.4504 38Z" fill="url(#paint35_linear_24_1300)"/>
<path fill-rule="evenodd" clip-rule="evenodd" d="M202.549 38H206.141L196.518 10.1604L194.078 13.5472L202.549 38Z" fill="url(#paint36_linear_24_1300)"/>
<path fill-rule="evenodd" clip-rule="evenodd" d="M202.549 38H206.141L196.518 65.8396L194.078 62.4528L202.549 38Z" fill="url(#paint37_linear_24_1300)"/>
<path fill-rule="evenodd" clip-rule="evenodd" d="M109.034 12.531C138.309 12.531 166.024 12.8697 190.691 13.547H27.3772C51.9759 12.9374 79.6918 12.531 109.034 12.531Z" fill="#62BBC9"/>
<path opacity="0.5" fill-rule="evenodd" clip-rule="evenodd" d="M11.8589 37.9997C13.0109 37.5255 14.3662 36.5095 15.586 33.7323L23.2434 15.7145L15.5182 38.0674H11.8589V37.9997Z" fill="url(#paint38_linear_24_1300)"/>
<path opacity="0.5" fill-rule="evenodd" clip-rule="evenodd" d="M206.141 37.9997C204.989 37.5255 203.634 36.5095 202.414 33.7323L194.757 15.7145L202.482 38.0674H206.141V37.9997Z" fill="url(#paint39_linear_24_1300)"/>
<path fill-rule="evenodd" clip-rule="evenodd" d="M109.034 68.278C138.309 68.278 166.024 68.6166 190.691 69.294H27.3772C51.9759 68.6166 79.6918 68.278 109.034 68.278Z" fill="#55D3FF"/>
<path opacity="0.5" fill-rule="evenodd" clip-rule="evenodd" d="M190.623 13.5472H27.3773H23.9213L23.447 15.0374L23.1759 15.7148L15.4507 38H202.55L194.825 15.7148L194.621 15.0374L194.079 13.5472H190.623Z" fill="url(#paint40_linear_24_1300)"/>
<path opacity="0.5" fill-rule="evenodd" clip-rule="evenodd" d="M190.623 62.4528H27.3773H23.9213L23.447 60.9626L23.1759 60.3529L15.4507 38H202.55L194.825 60.3529L194.621 60.9626L194.079 62.4528H190.623Z" fill="url(#paint41_linear_24_1300)"/>
<path opacity="0.5" fill-rule="evenodd" clip-rule="evenodd" d="M190.623 13.5472H27.3773H23.9213L23.447 15.0374L23.1759 15.7148L15.4507 38H202.55L194.825 15.7148L194.621 15.0374L194.079 13.5472H190.623Z" fill="url(#paint42_radial_24_1300)"/>
<path opacity="0.5" fill-rule="evenodd" clip-rule="evenodd" d="M190.623 62.4528H27.3773H23.9213L23.447 60.9626L23.1759 60.3529L15.4507 38H202.55L194.825 60.3529L194.621 60.9626L194.079 62.4528H190.623Z" fill="url(#paint43_radial_24_1300)"/>
</g>
<defs>
<linearGradient id="paint0_linear_24_1300" x1="45.0908" y1="52.9705" x2="45.0908" y2="23.0345" gradientUnits="userSpaceOnUse">
<stop stop-color="#6287C9"/>
<stop offset="1" stop-color="#3B597D"/>
</linearGradient>
<radialGradient id="paint1_radial_24_1300" cx="0" cy="0" r="1" gradientUnits="userSpaceOnUse" gradientTransform="translate(4.66562 38.0018) scale(15.6198 15.6132)">
<stop stop-color="white"/>
<stop offset="1" stop-color="#00FFFF"/>
</radialGradient>
<linearGradient id="paint2_linear_24_1300" x1="45.091" y1="24.5009" x2="45.091" y2="23.0345" gradientUnits="userSpaceOnUse">
<stop stop-color="#87B5F5"/>
<stop offset="1" stop-color="#4E76A6"/>
</linearGradient>
<linearGradient id="paint3_linear_24_1300" x1="45.0901" y1="25.9666" x2="45.0901" y2="24.5007" gradientUnits="userSpaceOnUse">
<stop stop-color="#204270"/>
<stop offset="1" stop-color="#335D94"/>
</linearGradient>
<linearGradient id="paint4_linear_24_1300" x1="45.0901" y1="51.5041" x2="45.0901" y2="50.0376" gradientUnits="userSpaceOnUse">
<stop stop-color="#87B5F5"/>
<stop offset="1" stop-color="#4E76A6"/>
</linearGradient>
<linearGradient id="paint5_linear_24_1300" x1="45.091" y1="52.9702" x2="45.091" y2="51.5038" gradientUnits="userSpaceOnUse">
<stop stop-color="#204270"/>
<stop offset="1" stop-color="#335D94"/>
</linearGradient>
<linearGradient id="paint6_linear_24_1300" x1="3.12058" y1="52.9704" x2="3.12058" y2="38.002" gradientUnits="userSpaceOnUse">
<stop stop-color="#273F5E"/>
<stop offset="1" stop-color="#4E688C"/>
</linearGradient>
<linearGradient id="paint7_linear_24_1300" x1="4.41828" y1="51.5039" x2="4.41828" y2="38.002" gradientUnits="userSpaceOnUse">
<stop stop-color="#4E688C"/>
<stop offset="1" stop-color="#273F5E"/>
</linearGradient>
<linearGradient id="paint8_linear_24_1300" x1="3.12058" y1="38.0021" x2="3.12058" y2="23.0345" gradientUnits="userSpaceOnUse">
<stop stop-color="#4E76A6"/>
<stop offset="1" stop-color="#87B5F5"/>
</linearGradient>
<linearGradient id="paint9_linear_24_1300" x1="4.41828" y1="38.0019" x2="4.41828" y2="24.5007" gradientUnits="userSpaceOnUse">
<stop stop-color="#4E688C"/>
<stop offset="1" stop-color="#273F5E"/>
</linearGradient>
<linearGradient id="paint10_linear_24_1300" x1="87.0602" y1="52.9704" x2="87.0602" y2="38.002" gradientUnits="userSpaceOnUse">
<stop stop-color="#87B5F5"/>
<stop offset="1" stop-color="#3A587D"/>
</linearGradient>
<linearGradient id="paint11_linear_24_1300" x1="82.8977" y1="31.2513" x2="88.6293" y2="31.2513" gradientUnits="userSpaceOnUse">
<stop stop-color="#204954"/>
<stop offset="1" stop-color="#1B3840"/>
</linearGradient>
<linearGradient id="paint12_linear_24_1300" x1="172.914" y1="52.9705" x2="172.914" y2="23.0345" gradientUnits="userSpaceOnUse">
<stop stop-color="#6287C9"/>
<stop offset="1" stop-color="#3B597D"/>
</linearGradient>
<radialGradient id="paint13_radial_24_1300" cx="0" cy="0" r="1" gradientUnits="userSpaceOnUse" gradientTransform="translate(213.325 38.0018) scale(30.8941 30.8809)">
<stop stop-color="white"/>
<stop offset="1" stop-color="#00FFFF"/>
</radialGradient>
<linearGradient id="paint14_linear_24_1300" x1="172.913" y1="24.5009" x2="172.913" y2="23.0345" gradientUnits="userSpaceOnUse">
<stop stop-color="#87B5F5"/>
<stop offset="1" stop-color="#4E76A6"/>
</linearGradient>
<linearGradient id="paint15_linear_24_1300" x1="172.913" y1="25.9666" x2="172.913" y2="24.5007" gradientUnits="userSpaceOnUse">
<stop stop-color="#204270"/>
<stop offset="1" stop-color="#335D94"/>
</linearGradient>
<linearGradient id="paint16_linear_24_1300" x1="172.913" y1="51.5041" x2="172.913" y2="50.0376" gradientUnits="userSpaceOnUse">
<stop stop-color="#87B5F5"/>
<stop offset="1" stop-color="#4E76A6"/>
</linearGradient>
<linearGradient id="paint17_linear_24_1300" x1="172.913" y1="52.9702" x2="172.913" y2="51.5038" gradientUnits="userSpaceOnUse">
<stop stop-color="#204270"/>
<stop offset="1" stop-color="#335D94"/>
</linearGradient>
<linearGradient id="paint18_linear_24_1300" x1="130.944" y1="52.9704" x2="130.944" y2="38.002" gradientUnits="userSpaceOnUse">
<stop stop-color="#87B5F5"/>
<stop offset="1" stop-color="#3A587D"/>
</linearGradient>
<linearGradient id="paint19_linear_24_1300" x1="129.376" y1="31.2513" x2="135.107" y2="31.2513" gradientUnits="userSpaceOnUse">
<stop stop-color="#204954"/>
<stop offset="1" stop-color="#1B3840"/>
</linearGradient>
<linearGradient id="paint20_linear_24_1300" x1="109.001" y1="72.639" x2="109.001" y2="3.36584" gradientUnits="userSpaceOnUse">
<stop stop-color="#6287C9"/>
<stop offset="1" stop-color="#3B597D"/>
</linearGradient>
<linearGradient id="paint21_linear_24_1300" x1="109.003" y1="65.8538" x2="109.003" y2="10.1509" gradientUnits="userSpaceOnUse">
<stop stop-color="#001E6B"/>
<stop offset="1" stop-color="#0056BF"/>
</linearGradient>
<linearGradient id="paint22_linear_24_1300" x1="109.002" y1="69.2458" x2="109.002" y2="65.8536" gradientUnits="userSpaceOnUse">
<stop stop-color="#87B5F5"/>
<stop offset="1" stop-color="#4E76A6"/>
</linearGradient>
<linearGradient id="paint23_linear_24_1300" x1="109.001" y1="72.6387" x2="109.001" y2="69.2458" gradientUnits="userSpaceOnUse">
<stop stop-color="#204270"/>
<stop offset="1" stop-color="#335D94"/>
</linearGradient>
<linearGradient id="paint24_linear_24_1300" x1="11.8778" y1="72.6389" x2="11.8778" y2="38.002" gradientUnits="userSpaceOnUse">
<stop stop-color="#273F5E"/>
<stop offset="1" stop-color="#4E688C"/>
</linearGradient>
<linearGradient id="paint25_linear_24_1300" x1="14.8823" y1="69.246" x2="14.8823" y2="38.002" gradientUnits="userSpaceOnUse">
<stop stop-color="#304D73"/>
<stop offset="1" stop-color="#5B79A3"/>
</linearGradient>
<linearGradient id="paint26_linear_24_1300" x1="11.8778" y1="38.0021" x2="11.8778" y2="3.36584" gradientUnits="userSpaceOnUse">
<stop stop-color="#4E76A6"/>
<stop offset="1" stop-color="#87B5F5"/>
</linearGradient>
<linearGradient id="paint27_linear_24_1300" x1="14.8823" y1="38.0019" x2="14.8823" y2="6.75854" gradientUnits="userSpaceOnUse">
<stop stop-color="#4E688C"/>
<stop offset="1" stop-color="#273F5E"/>
</linearGradient>
<linearGradient id="paint28_linear_24_1300" x1="206.126" y1="72.6389" x2="206.126" y2="38.002" gradientUnits="userSpaceOnUse">
<stop stop-color="#273F5E"/>
<stop offset="1" stop-color="#4E688C"/>
</linearGradient>
<linearGradient id="paint29_linear_24_1300" x1="203.122" y1="69.246" x2="203.122" y2="38.002" gradientUnits="userSpaceOnUse">
<stop stop-color="#304D73"/>
<stop offset="1" stop-color="#5B79A3"/>
</linearGradient>
<linearGradient id="paint30_linear_24_1300" x1="206.126" y1="38.0021" x2="206.126" y2="3.36584" gradientUnits="userSpaceOnUse">
<stop stop-color="#4E76A6"/>
<stop offset="1" stop-color="#87B5F5"/>
</linearGradient>
<linearGradient id="paint31_linear_24_1300" x1="203.122" y1="38.0019" x2="203.122" y2="6.75854" gradientUnits="userSpaceOnUse">
<stop stop-color="#4E688C"/>
<stop offset="1" stop-color="#273F5E"/>
</linearGradient>
<linearGradient id="paint32_linear_24_1300" x1="109.001" y1="13.5438" x2="109.001" y2="10.1509" gradientUnits="userSpaceOnUse">
<stop stop-color="#00ADEB"/>
<stop offset="1" stop-color="#006BED"/>
</linearGradient>
<linearGradient id="paint33_linear_24_1300" x1="17.8859" y1="38.002" x2="17.8859" y2="10.1509" gradientUnits="userSpaceOnUse">
<stop stop-color="#006BED"/>
<stop offset="1" stop-color="#003BD4"/>
</linearGradient>
<linearGradient id="paint34_linear_24_1300" x1="109.001" y1="65.8534" x2="109.001" y2="62.4605" gradientUnits="userSpaceOnUse">
<stop stop-color="#004BEB"/>
<stop offset="1" stop-color="#006FF5"/>
</linearGradient>
<linearGradient id="paint35_linear_24_1300" x1="17.8859" y1="65.8538" x2="17.8859" y2="38.002" gradientUnits="userSpaceOnUse">
<stop stop-color="#001D66"/>
<stop offset="0.5315" stop-color="#042477"/>
<stop offset="1" stop-color="#062880"/>
</linearGradient>
<linearGradient id="paint36_linear_24_1300" x1="200.118" y1="38.002" x2="200.118" y2="10.1509" gradientUnits="userSpaceOnUse">
<stop stop-color="#006BED"/>
<stop offset="1" stop-color="#003BD4"/>
</linearGradient>
<linearGradient id="paint37_linear_24_1300" x1="200.118" y1="65.8538" x2="200.118" y2="38.002" gradientUnits="userSpaceOnUse">
<stop stop-color="#001D66"/>
<stop offset="0.5315" stop-color="#042477"/>
<stop offset="1" stop-color="#062880"/>
</linearGradient>
<linearGradient id="paint38_linear_24_1300" x1="17.5152" y1="38.0017" x2="17.5152" y2="15.6806" gradientUnits="userSpaceOnUse">
<stop stop-color="#009EFA"/>
<stop offset="0.1287" stop-color="#0083D0"/>
<stop offset="0.3699" stop-color="#005587"/>
<stop offset="0.5863" stop-color="#00314D"/>
<stop offset="0.77" stop-color="#001623"/>
<stop offset="0.9138" stop-color="#000609"/>
<stop offset="1"/>
</linearGradient>
<linearGradient id="paint39_linear_24_1300" x1="200.49" y1="38.0017" x2="200.49" y2="15.6806" gradientUnits="userSpaceOnUse">
<stop stop-color="#009EFA"/>
<stop offset="0.1287" stop-color="#0083D0"/>
<stop offset="0.3699" stop-color="#005587"/>
<stop offset="0.5863" stop-color="#00314D"/>
<stop offset="0.77" stop-color="#001623"/>
<stop offset="0.9138" stop-color="#000609"/>
<stop offset="1"/>
</linearGradient>
<linearGradient id="paint40_linear_24_1300" x1="109.003" y1="38.002" x2="109.003" y2="13.5439" gradientUnits="userSpaceOnUse">
<stop stop-color="#0031B0"/>
<stop offset="0.112" stop-color="#002EA7"/>
<stop offset="0.2988" stop-color="#00278D"/>
<stop offset="0.5373" stop-color="#001C63"/>
<stop offset="0.8153" stop-color="#000C2A"/>
<stop offset="1"/>
</linearGradient>
<linearGradient id="paint41_linear_24_1300" x1="109.003" y1="62.4609" x2="109.003" y2="38.002" gradientUnits="userSpaceOnUse">
<stop stop-color="#062880"/>
<stop offset="0.1422" stop-color="#062577"/>
<stop offset="0.3791" stop-color="#041D5D"/>
<stop offset="0.6815" stop-color="#021033"/>
<stop offset="1"/>
</linearGradient>
<radialGradient id="paint42_radial_24_1300" cx="0" cy="0" r="1" gradientUnits="userSpaceOnUse" gradientTransform="translate(109.003 13.1991) scale(94.8039 94.7636)">
<stop stop-color="#0077FF"/>
<stop offset="0.1397" stop-color="#0061D1"/>
<stop offset="0.3779" stop-color="#003F87"/>
<stop offset="0.5918" stop-color="#00244D"/>
<stop offset="0.7732" stop-color="#001023"/>
<stop offset="0.915" stop-color="#00040A"/>
<stop offset="1"/>
</radialGradient>
<radialGradient id="paint43_radial_24_1300" cx="0" cy="0" r="1" gradientUnits="userSpaceOnUse" gradientTransform="translate(109.003 125.352) scale(105.898 105.853)">
<stop offset="0.4963" stop-color="#0044FF"/>
<stop offset="0.5396" stop-color="#0042F7"/>
<stop offset="0.6061" stop-color="#003CE2"/>
<stop offset="0.6873" stop-color="#0033BF"/>
<stop offset="0.7802" stop-color="#00268E"/>
<stop offset="0.883" stop-color="#001550"/>
<stop offset="0.9926" stop-color="#000105"/>
<stop offset="1"/>
</radialGradient>
<clipPath id="clip0_24_1300">
<rect width="218" height="76" fill="white"/>
</clipPath>
</defs>
</svg>
