<svg width="472" height="472" viewBox="0 0 472 472" fill="none" xmlns="http://www.w3.org/2000/svg">
<g filter="url(#filter0_f_24_1704)">
<path fill-rule="evenodd" clip-rule="evenodd" d="M449.044 365.701C467.855 384.512 464.476 418.5 441.456 441.456C418.436 464.476 384.513 467.855 365.701 449.044C346.89 430.233 350.27 396.245 373.29 373.289C396.309 350.27 430.233 346.89 449.044 365.701Z" fill="url(#paint0_radial_24_1704)" fill-opacity="0.3"/>
</g>
<g filter="url(#filter1_f_24_1704)">
<path fill-rule="evenodd" clip-rule="evenodd" d="M106.299 449.044C87.4875 467.855 53.5 464.476 30.544 441.456C7.52428 418.436 4.14465 384.512 22.9558 365.701C41.7669 346.89 75.7545 350.27 98.7104 373.289C121.73 396.309 125.11 430.233 106.299 449.044Z" fill="url(#paint1_radial_24_1704)" fill-opacity="0.3"/>
</g>
<g filter="url(#filter2_f_24_1704)">
<path fill-rule="evenodd" clip-rule="evenodd" d="M106.299 22.9559C125.11 41.767 121.73 75.7546 98.7104 98.7106C75.6907 121.73 41.7669 125.11 22.9558 106.299C4.14465 87.4877 7.52428 53.5001 30.544 30.5441C53.5 7.5244 87.4875 4.14477 106.299 22.9559Z" fill="url(#paint2_radial_24_1704)" fill-opacity="0.3"/>
</g>
<g filter="url(#filter3_f_24_1704)">
<path fill-rule="evenodd" clip-rule="evenodd" d="M449.044 106.299C430.233 125.11 396.246 121.73 373.29 98.7106C350.27 75.6908 346.89 41.767 365.701 22.9559C384.513 4.14477 418.5 7.5244 441.456 30.5441C464.54 53.5001 467.919 87.4877 449.044 106.299Z" fill="url(#paint3_radial_24_1704)" fill-opacity="0.3"/>
</g>
<path fill-rule="evenodd" clip-rule="evenodd" d="M438.778 349.76L394.269 394.269L349.76 438.778L385.597 443.56C387.318 443.815 388.912 443.369 390.188 442.412L416.141 416.204L442.349 390.251C443.305 388.976 443.688 387.382 443.497 385.66L438.778 349.76Z" fill="url(#paint4_linear_24_1704)"/>
<path fill-rule="evenodd" clip-rule="evenodd" d="M122.241 438.778L77.7314 394.269L33.2224 349.76L28.4399 385.596C28.1848 387.318 28.6312 388.912 29.5877 390.188L55.7957 416.141L81.7487 442.349C83.0241 443.305 84.6182 443.688 86.3399 443.496L122.241 438.778Z" fill="url(#paint5_linear_24_1704)"/>
<path fill-rule="evenodd" clip-rule="evenodd" d="M33.2226 122.241L77.7317 77.7314L122.241 33.2224L86.4039 28.4399C84.6822 28.1848 83.0881 28.6312 81.8127 29.5877L55.8597 55.8595L29.6517 81.8125C28.6952 83.0878 28.3126 84.682 28.5039 86.4037L33.2226 122.241Z" fill="url(#paint6_linear_24_1704)"/>
<path fill-rule="evenodd" clip-rule="evenodd" d="M349.76 33.2224L394.269 77.7314L438.778 122.24L443.56 86.4037C443.815 84.682 443.369 83.0878 442.413 81.8125L416.204 55.8595L390.252 29.6514C388.976 28.6949 387.382 28.3123 385.66 28.5036L349.76 33.2224Z" fill="url(#paint7_linear_24_1704)"/>
<path fill-rule="evenodd" clip-rule="evenodd" d="M236 0C366.339 0 472 105.661 472 236C472 366.339 366.339 472 236 472C105.661 472 0 366.339 0 236C0 105.661 105.661 0 236 0ZM236 7.14185C362.385 7.14185 464.858 109.615 464.858 236C464.858 362.385 362.385 464.858 236 464.858C109.615 464.858 7.14185 362.385 7.14185 236C7.14185 109.615 109.615 7.14185 236 7.14185Z" fill="url(#paint8_linear_24_1704)"/>
<path fill-rule="evenodd" clip-rule="evenodd" d="M236 3.57093C285.483 3.57093 331.395 19.0662 369.081 45.4018L426.598 102.919C452.998 140.605 468.429 186.517 468.429 236C468.429 285.483 452.934 331.395 426.598 369.081L369.081 426.598C331.395 452.998 285.483 468.429 236 468.429C186.517 468.429 140.605 452.934 102.919 426.598L45.4018 369.081C19.0024 331.395 3.57093 285.483 3.57093 236C3.57093 186.517 19.0662 140.605 45.4018 102.919L102.919 45.4018C140.605 19.0662 186.517 3.57093 236 3.57093ZM37.431 363.597L29.0138 385.915C28.4399 387.382 28.695 388.912 29.5877 390.188C36.9208 399.944 44.9554 409.254 53.819 418.117C62.6825 426.981 72.0562 435.079 81.7487 442.349C83.0241 443.305 84.5545 443.496 86.0211 442.922L108.339 434.505C145.133 458.226 188.94 471.936 235.936 471.936C282.932 471.936 326.74 458.163 363.533 434.505L385.851 442.922C387.318 443.496 388.848 443.241 390.124 442.349C399.88 435.015 409.19 426.981 418.054 418.117C426.917 409.254 435.015 399.88 442.285 390.188C443.241 388.912 443.433 387.382 442.859 385.915L434.442 363.597C458.163 326.804 471.872 282.996 471.872 236C471.872 189.004 458.099 145.196 434.442 108.403L442.859 86.0849C443.433 84.6182 443.178 83.0878 442.285 81.8125C435.015 72.0562 426.917 62.7463 418.054 53.8827C409.19 45.0192 399.816 36.9208 390.124 29.6514C388.848 28.695 387.318 28.5037 385.851 29.0775L363.533 37.4947C326.804 13.7736 282.996 0 236 0C189.004 0 145.196 13.7736 108.403 37.431L86.0849 29.0138C84.6182 28.4399 83.0878 28.695 81.8125 29.5877C72.0562 36.9208 62.7463 44.9554 53.8827 53.819C45.0192 62.6825 36.9208 72.0562 29.6514 81.7487C28.695 83.0241 28.5037 84.5545 29.0775 86.0211L37.431 108.403C13.7736 145.196 0 189.004 0 236C0 282.996 13.7736 326.804 37.431 363.597Z" fill="url(#paint9_linear_24_1704)"/>
<path fill-rule="evenodd" clip-rule="evenodd" d="M39.28 93.0354C46.7407 82.7689 55.0941 73.0764 64.0852 64.0853C73.0763 55.0943 82.7688 46.8046 93.0352 39.2802L84.9369 36.2194C75.7545 43.1699 67.0822 50.7581 58.9201 58.9203C50.758 67.0824 43.1698 75.7546 36.2192 84.937L39.28 93.0354Z" fill="url(#paint10_radial_24_1704)"/>
<path fill-rule="evenodd" clip-rule="evenodd" d="M39.7902 89.3369C46.8045 79.9632 54.5202 71.0997 62.8099 62.81C71.0995 54.5204 79.9631 46.8046 89.3368 39.7903L85.2557 38.2599C76.4559 45.0191 68.0387 52.3523 60.1955 60.1956C52.3522 68.0389 45.019 76.3923 38.2598 85.2558L39.7902 89.3369Z" fill="url(#paint11_radial_24_1704)"/>
<path fill-rule="evenodd" clip-rule="evenodd" d="M39.28 93.0353L36.2192 84.937L34.1787 84.6182L38.7699 96.7976L39.28 93.0353Z" fill="url(#paint12_linear_24_1704)"/>
<path fill-rule="evenodd" clip-rule="evenodd" d="M36.2192 84.937C43.1698 75.7546 50.758 67.0824 58.9201 58.9203C67.0822 50.7581 75.7545 43.1699 84.9369 36.2194L84.6181 34.1788C75.0531 41.3207 66.062 49.164 57.6448 57.6449C49.2276 66.0621 41.3843 75.117 34.1787 84.6182L36.2192 84.937Z" fill="url(#paint13_linear_24_1704)"/>
<path fill-rule="evenodd" clip-rule="evenodd" d="M64.0853 64.0853C55.0943 73.0764 46.8046 82.7689 39.2802 93.0353L38.77 96.7975C46.6771 85.5746 55.6044 75.0531 65.2969 65.3606C74.9894 55.6681 85.5109 46.7408 96.7338 38.8337L92.9716 39.3439C82.7689 46.7408 73.0764 55.0942 64.0853 64.0853Z" fill="url(#paint14_linear_24_1704)"/>
<path fill-rule="evenodd" clip-rule="evenodd" d="M84.937 36.2194L93.0353 39.2802L96.7976 38.77L84.6182 34.1788L84.937 36.2194Z" fill="url(#paint15_linear_24_1704)"/>
<path fill-rule="evenodd" clip-rule="evenodd" d="M236 3.57092C364.362 3.57092 468.429 107.638 468.429 236C468.429 364.362 364.362 468.429 236 468.429C107.638 468.429 3.5708 364.362 3.5708 236C3.5708 107.638 107.638 3.57092 236 3.57092ZM236 7.14185C362.385 7.14185 464.858 109.615 464.858 236C464.858 362.385 362.385 464.858 236 464.858C109.615 464.858 7.14173 362.385 7.14173 236C7.14173 109.615 109.615 7.14185 236 7.14185Z" fill="url(#paint16_linear_24_1704)"/>
<path fill-rule="evenodd" clip-rule="evenodd" d="M432.72 93.0354C425.259 82.7689 416.905 73.0764 407.914 64.0853C398.923 55.0943 389.231 46.8046 378.964 39.2802L387.063 36.2194C396.245 43.1699 404.917 50.7581 413.079 58.9203C421.242 67.0824 428.83 75.7546 435.78 84.937L432.72 93.0354Z" fill="url(#paint17_radial_24_1704)"/>
<path fill-rule="evenodd" clip-rule="evenodd" d="M432.209 89.3369C425.195 79.9632 417.479 71.0997 409.189 62.81C400.9 54.5204 392.036 46.8046 382.663 39.7903L386.807 38.2599C395.607 45.0191 404.024 52.3523 411.868 60.1956C419.711 68.0389 427.044 76.3923 433.803 85.2558L432.209 89.3369Z" fill="url(#paint18_radial_24_1704)"/>
<path fill-rule="evenodd" clip-rule="evenodd" d="M432.72 93.0353L435.78 84.937L437.821 84.6182L433.23 96.7976L432.72 93.0353Z" fill="url(#paint19_linear_24_1704)"/>
<path fill-rule="evenodd" clip-rule="evenodd" d="M435.78 84.937C428.83 75.7546 421.241 67.0824 413.079 58.9203C404.917 50.7581 396.245 43.1699 387.062 36.2194L387.381 34.1788C396.946 41.3207 405.937 49.164 414.355 57.6449C422.772 66.0621 430.615 75.117 437.821 84.6182L435.78 84.937Z" fill="url(#paint20_linear_24_1704)"/>
<path fill-rule="evenodd" clip-rule="evenodd" d="M407.915 64.0853C416.906 73.0764 425.195 82.7689 432.72 93.0353L433.23 96.7975C425.323 85.5746 416.396 75.0531 406.703 65.3606C397.011 55.6681 386.489 46.7408 375.266 38.8337L379.028 39.3439C389.231 46.7408 398.924 55.0942 407.915 64.0853Z" fill="url(#paint21_linear_24_1704)"/>
<path fill-rule="evenodd" clip-rule="evenodd" d="M387.063 36.2194L378.964 39.2802L375.202 38.77L387.382 34.1788L387.063 36.2194Z" fill="url(#paint22_linear_24_1704)"/>
<path fill-rule="evenodd" clip-rule="evenodd" d="M432.72 378.965C425.259 389.231 416.905 398.924 407.914 407.915C398.923 416.906 389.231 425.195 378.964 432.72L387.063 435.781C396.245 428.83 404.917 421.242 413.079 413.08C421.242 404.918 428.83 396.245 435.78 387.063L432.72 378.965Z" fill="url(#paint23_radial_24_1704)"/>
<path fill-rule="evenodd" clip-rule="evenodd" d="M432.209 382.663C425.195 392.037 417.479 400.9 409.189 409.19C400.9 417.48 392.036 425.195 382.663 432.21L386.744 433.74C395.543 426.981 403.961 419.648 411.804 411.804C419.647 403.961 426.98 395.608 433.74 386.744L432.209 382.663Z" fill="url(#paint24_radial_24_1704)"/>
<path fill-rule="evenodd" clip-rule="evenodd" d="M432.72 378.965L435.78 387.063L437.821 387.382L433.23 375.202L432.72 378.965Z" fill="url(#paint25_linear_24_1704)"/>
<path fill-rule="evenodd" clip-rule="evenodd" d="M435.78 387.063C428.83 396.245 421.241 404.918 413.079 413.08C404.917 421.242 396.245 428.83 387.062 435.781L387.381 437.821C396.946 430.679 405.937 422.836 414.355 414.355C422.772 405.938 430.615 396.883 437.821 387.382L435.78 387.063Z" fill="url(#paint26_linear_24_1704)"/>
<path fill-rule="evenodd" clip-rule="evenodd" d="M407.915 407.915C416.906 398.924 425.195 389.231 432.72 378.965L433.23 375.202C425.323 386.425 416.396 396.947 406.703 406.639C397.011 416.332 386.489 425.259 375.266 433.166L379.028 432.656C389.231 425.259 398.924 416.969 407.915 407.915Z" fill="url(#paint27_linear_24_1704)"/>
<path fill-rule="evenodd" clip-rule="evenodd" d="M387.063 435.781L378.964 432.72L375.202 433.23L387.382 437.821L387.063 435.781Z" fill="url(#paint28_linear_24_1704)"/>
<path fill-rule="evenodd" clip-rule="evenodd" d="M39.28 378.965C46.7407 389.231 55.0941 398.924 64.0852 407.915C73.0763 416.906 82.7688 425.195 93.0352 432.72L84.9369 435.781C75.7545 428.83 67.0822 421.242 58.9201 413.08C50.758 404.918 43.1698 396.245 36.2192 387.063L39.28 378.965Z" fill="url(#paint29_radial_24_1704)"/>
<path fill-rule="evenodd" clip-rule="evenodd" d="M39.7902 382.663C46.8045 392.037 54.5202 400.9 62.8099 409.19C71.0995 417.48 79.9631 425.195 89.3368 432.21L85.2557 433.74C76.4559 426.981 68.0387 419.648 60.1955 411.804C52.3522 403.961 45.019 395.608 38.2598 386.808L39.7902 382.663Z" fill="url(#paint30_radial_24_1704)"/>
<path fill-rule="evenodd" clip-rule="evenodd" d="M39.28 378.965L36.2192 387.063L34.1787 387.382L38.7699 375.202L39.28 378.965Z" fill="url(#paint31_linear_24_1704)"/>
<path fill-rule="evenodd" clip-rule="evenodd" d="M36.2192 387.063C43.1698 396.245 50.758 404.918 58.9201 413.08C67.0822 421.242 75.7545 428.83 84.9369 435.781L84.6181 437.821C75.0531 430.679 66.062 422.836 57.6448 414.355C49.2276 405.938 41.3843 396.883 34.1787 387.382L36.2192 387.063Z" fill="url(#paint32_linear_24_1704)"/>
<path fill-rule="evenodd" clip-rule="evenodd" d="M64.0853 407.915C55.0943 398.924 46.8046 389.231 39.2802 378.965L38.77 375.202C46.6771 386.425 55.6044 396.947 65.2969 406.639C74.9894 416.332 85.5109 425.259 96.7338 433.166L92.9716 432.656C82.7689 425.259 73.0764 416.969 64.0853 407.915Z" fill="url(#paint33_linear_24_1704)"/>
<path fill-rule="evenodd" clip-rule="evenodd" d="M84.937 435.781L93.0353 432.72L96.7976 433.23L84.6182 437.821L84.937 435.781Z" fill="url(#paint34_linear_24_1704)"/>
<path d="M425.961 236C425.961 288.48 404.726 335.922 370.292 370.356C335.922 404.726 288.416 426.024 235.936 426.024V424.111C287.842 424.111 334.902 403.068 368.953 369.017C403.005 334.966 424.048 287.97 424.048 236H425.961ZM234.087 425.961C234.725 425.961 235.362 425.961 236 425.961V424.048C235.362 424.048 234.725 424.048 234.087 424.048V425.961ZM103.621 372.269C104.067 372.715 104.513 373.162 104.96 373.608L106.235 372.205C105.789 371.759 105.342 371.313 104.896 370.93L103.621 372.269ZM109.168 377.434C109.615 377.881 110.125 378.263 110.571 378.71L111.846 377.307C111.4 376.86 110.89 376.478 110.444 376.031L109.168 377.434ZM114.971 382.408C115.481 382.791 115.928 383.237 116.438 383.62L117.649 382.153C117.139 381.77 116.693 381.388 116.183 380.941L114.971 382.408ZM120.901 387.127C121.411 387.509 121.922 387.892 122.432 388.275L123.58 386.744C123.069 386.362 122.559 385.979 122.049 385.596L120.901 387.127ZM127.087 391.654C127.597 392.037 128.107 392.356 128.681 392.738L129.765 391.208C129.255 390.825 128.745 390.506 128.234 390.124L127.087 391.654ZM133.4 395.863C133.91 396.182 134.484 396.564 134.994 396.883L136.014 395.289C135.504 394.97 134.93 394.587 134.42 394.269L133.4 395.863ZM139.84 399.816C140.414 400.135 140.924 400.454 141.498 400.773L142.454 399.115C141.944 398.796 141.37 398.477 140.797 398.158L139.84 399.816ZM146.472 403.579C147.046 403.897 147.62 404.152 148.13 404.471L149.022 402.813C148.448 402.494 147.938 402.239 147.364 401.921L146.472 403.579ZM153.295 407.022C153.869 407.277 154.443 407.596 155.016 407.851L155.845 406.129C155.272 405.874 154.698 405.619 154.124 405.3L153.295 407.022ZM160.182 410.21C160.755 410.465 161.329 410.72 161.903 410.975L162.668 409.254C162.095 408.999 161.521 408.744 160.947 408.489L160.182 410.21ZM167.196 413.08C167.77 413.335 168.407 413.526 168.981 413.781L169.619 411.996C169.045 411.804 168.471 411.549 167.834 411.294L167.196 413.08ZM174.401 415.694C174.975 415.885 175.613 416.077 176.187 416.332L176.761 414.483C176.187 414.291 175.549 414.1 174.975 413.909L174.401 415.694ZM181.607 417.99C182.245 418.181 182.819 418.372 183.456 418.5L183.966 416.651C183.393 416.459 182.755 416.268 182.181 416.141L181.607 417.99ZM188.94 420.03C189.578 420.158 190.152 420.349 190.789 420.477L191.236 418.627C190.598 418.5 190.024 418.309 189.387 418.181L188.94 420.03ZM196.337 421.816C196.975 421.943 197.549 422.071 198.186 422.198L198.569 420.349C197.931 420.222 197.357 420.094 196.72 419.967L196.337 421.816ZM203.798 423.219C204.436 423.346 205.073 423.41 205.647 423.537L205.966 421.688C205.328 421.561 204.754 421.497 204.117 421.369L203.798 423.219ZM211.322 424.366C211.96 424.43 212.598 424.558 213.235 424.621L213.427 422.772C212.789 422.708 212.151 422.645 211.577 422.517L211.322 424.366ZM218.911 425.195C219.548 425.259 220.186 425.323 220.824 425.387L220.951 423.474C220.313 423.41 219.676 423.346 219.102 423.282L218.911 425.195ZM226.499 425.706C227.136 425.706 227.774 425.769 228.412 425.769L228.476 423.856C227.838 423.856 227.2 423.792 226.626 423.792L226.499 425.706Z" fill="url(#paint35_radial_24_1704)"/>
<path fill-rule="evenodd" clip-rule="evenodd" d="M236 7.14185C362.386 7.14185 464.858 109.615 464.858 236C464.858 362.385 362.386 464.858 236 464.858C109.615 464.858 7.14209 362.385 7.14209 236C7.14209 109.615 109.615 7.14185 236 7.14185Z" fill="url(#paint36_radial_24_1704)"/>
<path opacity="0.2" fill-rule="evenodd" clip-rule="evenodd" d="M400.327 71.6736L71.6738 400.326C113.76 442.412 171.851 468.365 236 468.365C364.362 468.365 468.429 364.298 468.429 235.936C468.429 171.851 442.413 113.696 400.327 71.6736Z" fill="url(#paint37_radial_24_1704)"/>
<path d="M236 37.6223C275.408 37.6223 312.138 49.1002 343.064 68.9316L338.856 56.8797C307.036 38.5787 271.518 29.4601 236 29.4601C200.482 29.4601 165.028 38.5787 133.145 56.8797L128.936 68.9316C159.799 49.164 196.593 37.6223 236 37.6223ZM346.699 71.3548C357.348 78.4966 367.232 86.6587 376.287 95.7136C385.342 104.768 393.44 114.652 400.646 125.237L416.97 130.913L417.225 131.359C435.908 163.689 445.218 199.844 445.218 235.936C445.218 272.028 435.845 308.184 417.161 340.513L416.906 340.96L400.646 346.635C393.504 357.284 385.342 367.168 376.287 376.159C367.232 385.214 357.348 393.312 346.763 400.518L341.088 416.842L340.641 417.097C308.248 435.781 272.156 445.091 236.064 445.091C199.972 445.091 163.817 435.717 131.487 417.033L131.041 416.778L125.365 400.518C114.716 393.376 104.832 385.214 95.7776 376.159C86.7228 367.104 78.6244 357.22 71.4188 346.635L55.0946 340.96L54.8395 340.577C36.1559 308.247 26.7822 272.156 26.7822 236C26.7822 199.908 36.1559 163.753 54.8395 131.423L55.0946 130.976L71.355 125.301C78.4969 114.652 86.659 104.768 95.7139 95.7773C104.769 86.7225 114.653 78.6241 125.238 71.4185L130.913 55.0943L131.359 54.8392C163.689 36.1556 199.845 26.8457 235.937 26.8457C272.028 26.8457 308.184 36.2194 340.514 54.903L340.96 55.158L346.699 71.3548ZM374.374 97.6266C338.983 62.2361 290.011 40.3004 236 40.3004C181.926 40.3004 133.017 62.2361 97.6269 97.6266C62.2364 133.017 40.3007 181.99 40.3007 236C40.3007 290.01 62.2364 338.983 97.6269 374.373C133.017 409.764 181.99 431.7 236 431.7C290.011 431.7 338.983 409.828 374.374 374.373C409.764 338.983 431.7 290.01 431.7 236C431.7 181.99 409.828 133.017 374.374 97.6266ZM403.069 128.936C422.9 159.799 434.442 196.592 434.442 236C434.442 275.408 422.964 312.137 403.132 343.064L415.184 338.855C433.485 307.036 442.604 271.518 442.604 236C442.604 200.482 433.485 165.028 415.184 133.145L403.069 128.936ZM343.064 403.068C312.201 422.9 275.408 434.378 236 434.378C196.593 434.378 159.863 422.9 128.936 403.068L133.145 415.12C164.964 433.421 200.482 442.54 236 442.54C271.518 442.54 306.972 433.421 338.856 415.12L343.064 403.068ZM68.9319 343.064C49.1005 312.201 37.6225 275.408 37.6225 236C37.6225 196.592 49.1005 159.863 68.9319 128.936L56.88 133.145C38.579 164.964 29.4604 200.482 29.4604 236C29.4604 271.518 38.579 306.972 56.88 338.855L68.9319 343.064Z" fill="url(#paint38_radial_24_1704)"/>
<path d="M46.0396 236C46.0396 183.52 67.2738 136.078 101.708 101.644C136.078 67.2737 183.584 45.9757 236.064 45.9757V47.8887C184.158 47.8887 137.098 68.9317 103.047 102.983C68.9955 137.034 47.9525 184.03 47.9525 236H46.0396ZM237.913 46.0395C237.275 46.0395 236.638 46.0395 236 46.0395V47.9525C236.638 47.9525 237.275 47.9525 237.913 47.9525V46.0395ZM368.379 99.7309C367.933 99.2845 367.487 98.8382 367.04 98.3918L365.765 99.7947C366.211 100.241 366.658 100.687 367.104 101.07L368.379 99.7309ZM362.832 94.5658C362.385 94.1195 361.875 93.7369 361.429 93.2905L360.154 94.6934C360.6 95.1397 361.11 95.5223 361.556 95.9687L362.832 94.5658ZM357.029 89.592C356.519 89.2094 356.073 88.7631 355.562 88.3805L354.351 89.8471C354.861 90.2297 355.307 90.6123 355.817 91.0587L357.029 89.592ZM351.099 84.8733C350.589 84.4907 350.078 84.1081 349.568 83.7255L348.421 85.2559C348.931 85.6385 349.441 86.0211 349.951 86.4037L351.099 84.8733ZM344.977 80.4096C344.467 80.027 343.957 79.7082 343.383 79.3256L342.299 80.856C342.809 81.2386 343.319 81.5574 343.829 81.94L344.977 80.4096ZM338.664 76.1373C338.154 75.8185 337.58 75.4359 337.07 75.117L336.05 76.7112C336.56 77.03 337.134 77.4126 337.644 77.7314L338.664 76.1373ZM332.16 72.1838C331.586 71.8649 331.076 71.5461 330.502 71.2273L329.546 72.8852C330.12 73.204 330.63 73.5229 331.204 73.8417L332.16 72.1838ZM325.528 68.4215C324.954 68.1027 324.381 67.8476 323.87 67.5288L322.978 69.1867C323.552 69.5056 324.062 69.7606 324.636 70.0795L325.528 68.4215ZM318.705 64.9781C318.131 64.7231 317.558 64.4042 316.984 64.1492L316.155 65.8709C316.729 66.1259 317.302 66.381 317.876 66.6998L318.705 64.9781ZM311.819 61.7898C311.245 61.5347 310.671 61.2797 310.097 61.0246L309.332 62.7463C309.906 63.0014 310.479 63.2564 311.053 63.5115L311.819 61.7898ZM304.804 58.9203C304.23 58.6652 303.593 58.474 303.019 58.2189L302.381 60.0043C302.955 60.1956 303.529 60.4507 304.167 60.7058L304.804 58.9203ZM297.662 56.3059C297.088 56.1146 296.451 55.9233 295.877 55.6682L295.239 57.5175C295.813 57.7088 296.451 57.9001 297.025 58.0914L297.662 56.3059ZM290.393 54.0103C289.755 53.819 289.181 53.6277 288.544 53.5002L288.034 55.3494C288.607 55.5407 289.245 55.6682 289.819 55.8595L290.393 54.0103ZM283.06 51.9698C282.422 51.8422 281.848 51.6509 281.211 51.5234L280.764 53.3726C281.402 53.5002 281.976 53.6915 282.613 53.819L283.06 51.9698ZM275.663 50.2481C275.025 50.1205 274.388 49.993 273.814 49.8655L273.431 51.7147C274.069 51.8422 274.643 51.9698 275.28 52.0973L275.663 50.2481ZM268.202 48.7814C267.565 48.6539 266.927 48.5901 266.353 48.4626L266.034 50.3118C266.672 50.4394 267.246 50.5031 267.883 50.6307L268.202 48.7814ZM260.678 47.6336C260.04 47.5699 259.402 47.4423 258.765 47.3786L258.573 49.2278C259.211 49.2916 259.849 49.3553 260.423 49.4829L260.678 47.6336ZM253.09 46.8047C252.452 46.7409 251.814 46.6771 251.177 46.6134L251.049 48.5264C251.687 48.5901 252.324 48.6539 252.898 48.6539L253.09 46.8047ZM245.501 46.2945C244.864 46.2308 244.226 46.2308 243.588 46.2308L243.525 48.1438C244.162 48.1438 244.8 48.2075 245.374 48.2075L245.501 46.2945Z" fill="url(#paint39_radial_24_1704)"/>
<path fill-rule="evenodd" clip-rule="evenodd" d="M37.6226 236C37.6226 196.592 49.1006 159.863 68.9319 128.936L56.8801 133.145C38.5791 164.964 29.4604 200.482 29.4604 236C29.4604 271.518 38.5791 306.972 56.8801 338.855L68.9319 343.064C49.1006 312.201 37.6226 275.408 37.6226 236Z" fill="url(#paint40_linear_24_1704)"/>
<path fill-rule="evenodd" clip-rule="evenodd" d="M128.936 68.9953C159.799 49.1639 196.592 37.6222 236 37.6222C275.408 37.6222 312.137 49.1002 343.064 68.9316L338.856 56.8797C307.036 38.5787 271.518 29.4601 236 29.4601C200.482 29.4601 165.028 38.5787 133.145 56.8797L128.936 68.9953Z" fill="url(#paint41_linear_24_1704)"/>
<path fill-rule="evenodd" clip-rule="evenodd" d="M434.378 236C434.378 275.408 422.9 312.137 403.068 343.064L415.12 338.855C433.421 307.036 442.54 271.518 442.54 236C442.54 200.482 433.421 165.028 415.12 133.145L403.068 128.936C422.9 159.863 434.378 196.592 434.378 236Z" fill="url(#paint42_linear_24_1704)"/>
<path fill-rule="evenodd" clip-rule="evenodd" d="M343.064 403.068C312.201 422.9 275.408 434.378 236 434.378C196.592 434.378 159.863 422.9 128.936 403.068L133.145 415.12C164.964 433.421 200.482 442.54 236 442.54C271.518 442.54 306.972 433.421 338.856 415.12L343.064 403.068Z" fill="url(#paint43_linear_24_1704)"/>
<defs>
<filter id="filter0_f_24_1704" x="349.54" y="349.54" width="115.666" height="115.666" filterUnits="userSpaceOnUse" color-interpolation-filters="sRGB">
<feFlood flood-opacity="0" result="BackgroundImageFix"/>
<feBlend mode="normal" in="SourceGraphic" in2="BackgroundImageFix" result="shape"/>
<feGaussianBlur stdDeviation="2" result="effect1_foregroundBlur_24_1704"/>
</filter>
<filter id="filter1_f_24_1704" x="6.79443" y="349.54" width="115.666" height="115.666" filterUnits="userSpaceOnUse" color-interpolation-filters="sRGB">
<feFlood flood-opacity="0" result="BackgroundImageFix"/>
<feBlend mode="normal" in="SourceGraphic" in2="BackgroundImageFix" result="shape"/>
<feGaussianBlur stdDeviation="2" result="effect1_foregroundBlur_24_1704"/>
</filter>
<filter id="filter2_f_24_1704" x="6.79443" y="6.79456" width="115.666" height="115.666" filterUnits="userSpaceOnUse" color-interpolation-filters="sRGB">
<feFlood flood-opacity="0" result="BackgroundImageFix"/>
<feBlend mode="normal" in="SourceGraphic" in2="BackgroundImageFix" result="shape"/>
<feGaussianBlur stdDeviation="2" result="effect1_foregroundBlur_24_1704"/>
</filter>
<filter id="filter3_f_24_1704" x="349.54" y="6.79456" width="115.712" height="115.666" filterUnits="userSpaceOnUse" color-interpolation-filters="sRGB">
<feFlood flood-opacity="0" result="BackgroundImageFix"/>
<feBlend mode="normal" in="SourceGraphic" in2="BackgroundImageFix" result="shape"/>
<feGaussianBlur stdDeviation="2" result="effect1_foregroundBlur_24_1704"/>
</filter>
<radialGradient id="paint0_radial_24_1704" cx="0" cy="0" r="1" gradientUnits="userSpaceOnUse" gradientTransform="translate(407.383 407.383) rotate(-45) scale(58.916 48.257)">
<stop stop-color="#CCCC14"/>
<stop offset="0.2009" stop-color="#90900E"/>
<stop offset="0.3983" stop-color="#5C5C09"/>
<stop offset="0.582" stop-color="#343405"/>
<stop offset="0.7491" stop-color="#181802"/>
<stop offset="0.8939" stop-color="#060601"/>
<stop offset="1"/>
</radialGradient>
<radialGradient id="paint1_radial_24_1704" cx="0" cy="0" r="1" gradientUnits="userSpaceOnUse" gradientTransform="translate(64.6267 407.383) rotate(45) scale(58.916 48.257)">
<stop stop-color="#CCCC14"/>
<stop offset="0.2009" stop-color="#90900E"/>
<stop offset="0.3983" stop-color="#5C5C09"/>
<stop offset="0.582" stop-color="#343405"/>
<stop offset="0.7491" stop-color="#181802"/>
<stop offset="0.8939" stop-color="#060601"/>
<stop offset="1"/>
</radialGradient>
<radialGradient id="paint2_radial_24_1704" cx="0" cy="0" r="1" gradientUnits="userSpaceOnUse" gradientTransform="translate(64.6267 64.6272) rotate(-45) scale(58.916 48.257)">
<stop stop-color="#CCCC14"/>
<stop offset="0.2009" stop-color="#90900E"/>
<stop offset="0.3983" stop-color="#5C5C09"/>
<stop offset="0.582" stop-color="#343405"/>
<stop offset="0.7491" stop-color="#181802"/>
<stop offset="0.8939" stop-color="#060601"/>
<stop offset="1"/>
</radialGradient>
<radialGradient id="paint3_radial_24_1704" cx="0" cy="0" r="1" gradientUnits="userSpaceOnUse" gradientTransform="translate(407.383 64.6278) rotate(45) scale(58.916 48.257)">
<stop stop-color="#CCCC14"/>
<stop offset="0.2009" stop-color="#90900E"/>
<stop offset="0.3983" stop-color="#5C5C09"/>
<stop offset="0.582" stop-color="#343405"/>
<stop offset="0.7491" stop-color="#181802"/>
<stop offset="0.8939" stop-color="#060601"/>
<stop offset="1"/>
</radialGradient>
<linearGradient id="paint4_linear_24_1704" x1="416.294" y1="416.294" x2="394.248" y2="394.249" gradientUnits="userSpaceOnUse">
<stop stop-color="#4E688C"/>
<stop offset="1" stop-color="#273F5E"/>
</linearGradient>
<linearGradient id="paint5_linear_24_1704" x1="55.7167" y1="416.294" x2="77.7614" y2="394.249" gradientUnits="userSpaceOnUse">
<stop stop-color="#4E688C"/>
<stop offset="1" stop-color="#273F5E"/>
</linearGradient>
<linearGradient id="paint6_linear_24_1704" x1="77.7616" y1="77.7614" x2="55.7169" y2="55.7167" gradientUnits="userSpaceOnUse">
<stop stop-color="#273F5E"/>
<stop offset="1" stop-color="#4E688C"/>
</linearGradient>
<linearGradient id="paint7_linear_24_1704" x1="394.248" y1="77.762" x2="416.294" y2="55.716" gradientUnits="userSpaceOnUse">
<stop stop-color="#273F5E"/>
<stop offset="1" stop-color="#4E688C"/>
</linearGradient>
<linearGradient id="paint8_linear_24_1704" x1="236.006" y1="472.011" x2="236.006" y2="0" gradientUnits="userSpaceOnUse">
<stop stop-color="#87B5F5"/>
<stop offset="1" stop-color="#3A587D"/>
</linearGradient>
<linearGradient id="paint9_linear_24_1704" x1="236.006" y1="472.012" x2="236.006" y2="0" gradientUnits="userSpaceOnUse">
<stop stop-color="#3A587D"/>
<stop offset="1" stop-color="#87B5F5"/>
</linearGradient>
<radialGradient id="paint10_radial_24_1704" cx="0" cy="0" r="1" gradientUnits="userSpaceOnUse" gradientTransform="translate(64.6266 64.6274) scale(28.4029)">
<stop stop-color="#F8FC86"/>
<stop offset="1" stop-color="#EDCE20"/>
</radialGradient>
<radialGradient id="paint11_radial_24_1704" cx="0" cy="0" r="1" gradientUnits="userSpaceOnUse" gradientTransform="translate(63.7874 63.7876) scale(25.5391)">
<stop stop-color="#EFFF57"/>
<stop offset="1"/>
</radialGradient>
<linearGradient id="paint12_linear_24_1704" x1="34.4382" y1="94.275" x2="38.9293" y2="86.4961" gradientUnits="userSpaceOnUse">
<stop stop-color="#739CB0"/>
<stop offset="1" stop-color="#476B96"/>
</linearGradient>
<linearGradient id="paint13_linear_24_1704" x1="59.5693" y1="84.9345" x2="59.5693" y2="34.2037" gradientUnits="userSpaceOnUse">
<stop stop-color="#6287C9"/>
<stop offset="1" stop-color="#3B597D"/>
</linearGradient>
<linearGradient id="paint14_linear_24_1704" x1="67.7844" y1="67.785" x2="64.0662" y2="64.0668" gradientUnits="userSpaceOnUse">
<stop stop-color="#99B2BF"/>
<stop offset="1" stop-color="#9BBD67"/>
</linearGradient>
<linearGradient id="paint15_linear_24_1704" x1="84.6443" y1="36.7422" x2="96.7842" y2="36.7422" gradientUnits="userSpaceOnUse">
<stop stop-color="#476B96"/>
<stop offset="1" stop-color="#739CB0"/>
</linearGradient>
<linearGradient id="paint16_linear_24_1704" x1="236.006" y1="468.45" x2="236.006" y2="3.59132" gradientUnits="userSpaceOnUse">
<stop stop-color="#87B5F5"/>
<stop offset="1" stop-color="#3A587D"/>
</linearGradient>
<radialGradient id="paint17_radial_24_1704" cx="0" cy="0" r="1" gradientUnits="userSpaceOnUse" gradientTransform="translate(407.383 64.6274) rotate(180) scale(28.4029)">
<stop stop-color="#F8FC86"/>
<stop offset="1" stop-color="#EDCE20"/>
</radialGradient>
<radialGradient id="paint18_radial_24_1704" cx="0" cy="0" r="1" gradientUnits="userSpaceOnUse" gradientTransform="translate(408.222 63.7876) rotate(180) scale(25.5391)">
<stop stop-color="#EFFF57"/>
<stop offset="1"/>
</radialGradient>
<linearGradient id="paint19_linear_24_1704" x1="437.572" y1="94.275" x2="433.081" y2="86.4961" gradientUnits="userSpaceOnUse">
<stop stop-color="#739CB0"/>
<stop offset="1" stop-color="#476B96"/>
</linearGradient>
<linearGradient id="paint20_linear_24_1704" x1="412.44" y1="84.9345" x2="412.44" y2="34.2037" gradientUnits="userSpaceOnUse">
<stop stop-color="#6287C9"/>
<stop offset="1" stop-color="#3B597D"/>
</linearGradient>
<linearGradient id="paint21_linear_24_1704" x1="404.225" y1="67.785" x2="407.943" y2="64.0668" gradientUnits="userSpaceOnUse">
<stop stop-color="#99B2BF"/>
<stop offset="1" stop-color="#9BBD67"/>
</linearGradient>
<linearGradient id="paint22_linear_24_1704" x1="387.365" y1="36.7422" x2="375.225" y2="36.7422" gradientUnits="userSpaceOnUse">
<stop stop-color="#476B96"/>
<stop offset="1" stop-color="#739CB0"/>
</linearGradient>
<radialGradient id="paint23_radial_24_1704" cx="0" cy="0" r="1" gradientUnits="userSpaceOnUse" gradientTransform="translate(407.383 407.383) rotate(180) scale(28.4029)">
<stop stop-color="#F8FC86"/>
<stop offset="1" stop-color="#EDCE20"/>
</radialGradient>
<radialGradient id="paint24_radial_24_1704" cx="0" cy="0" r="1" gradientUnits="userSpaceOnUse" gradientTransform="translate(408.222 408.224) rotate(180) scale(25.5385)">
<stop stop-color="#EFFF57"/>
<stop offset="1"/>
</radialGradient>
<linearGradient id="paint25_linear_24_1704" x1="437.572" y1="377.736" x2="433.08" y2="385.515" gradientUnits="userSpaceOnUse">
<stop stop-color="#739CB0"/>
<stop offset="1" stop-color="#476B96"/>
</linearGradient>
<linearGradient id="paint26_linear_24_1704" x1="412.44" y1="387.077" x2="412.44" y2="437.807" gradientUnits="userSpaceOnUse">
<stop stop-color="#99B2BF"/>
<stop offset="1" stop-color="#9BBD67"/>
</linearGradient>
<linearGradient id="paint27_linear_24_1704" x1="404.225" y1="404.226" x2="407.943" y2="407.945" gradientUnits="userSpaceOnUse">
<stop stop-color="#6287C9"/>
<stop offset="1" stop-color="#3B597D"/>
</linearGradient>
<linearGradient id="paint28_linear_24_1704" x1="387.365" y1="435.269" x2="375.225" y2="435.269" gradientUnits="userSpaceOnUse">
<stop stop-color="#476B96"/>
<stop offset="1" stop-color="#739CB0"/>
</linearGradient>
<radialGradient id="paint29_radial_24_1704" cx="0" cy="0" r="1" gradientUnits="userSpaceOnUse" gradientTransform="translate(64.6266 407.383) scale(28.4023)">
<stop stop-color="#F8FC86"/>
<stop offset="1" stop-color="#EDCE20"/>
</radialGradient>
<radialGradient id="paint30_radial_24_1704" cx="0" cy="0" r="1" gradientUnits="userSpaceOnUse" gradientTransform="translate(63.7874 408.224) scale(25.5385)">
<stop stop-color="#EFFF57"/>
<stop offset="1"/>
</radialGradient>
<linearGradient id="paint31_linear_24_1704" x1="34.4376" y1="377.736" x2="38.9293" y2="385.515" gradientUnits="userSpaceOnUse">
<stop stop-color="#739CB0"/>
<stop offset="1" stop-color="#476B96"/>
</linearGradient>
<linearGradient id="paint32_linear_24_1704" x1="59.5693" y1="387.077" x2="59.5693" y2="437.807" gradientUnits="userSpaceOnUse">
<stop stop-color="#99B2BF"/>
<stop offset="1" stop-color="#9BBD67"/>
</linearGradient>
<linearGradient id="paint33_linear_24_1704" x1="67.7844" y1="404.226" x2="64.0662" y2="407.945" gradientUnits="userSpaceOnUse">
<stop stop-color="#6287C9"/>
<stop offset="1" stop-color="#3B597D"/>
</linearGradient>
<linearGradient id="paint34_linear_24_1704" x1="84.6443" y1="435.269" x2="96.7842" y2="435.269" gradientUnits="userSpaceOnUse">
<stop stop-color="#476B96"/>
<stop offset="1" stop-color="#739CB0"/>
</linearGradient>
<radialGradient id="paint35_radial_24_1704" cx="0" cy="0" r="1" gradientUnits="userSpaceOnUse" gradientTransform="translate(426.593 233.655) scale(350.177)">
<stop stop-color="#67DBFF"/>
<stop offset="1" stop-color="#0053B5"/>
</radialGradient>
<radialGradient id="paint36_radial_24_1704" cx="0" cy="0" r="1" gradientUnits="userSpaceOnUse" gradientTransform="translate(232.675 10.6783) scale(448.265)">
<stop stop-color="#0056BF"/>
<stop offset="0.1352" stop-color="#02429F"/>
<stop offset="0.2857" stop-color="#043183"/>
<stop offset="0.4168" stop-color="#052671"/>
<stop offset="0.513" stop-color="#05226B"/>
<stop offset="0.6195" stop-color="#072060"/>
<stop offset="0.8351" stop-color="#091D50"/>
<stop offset="1" stop-color="#0A1C4A"/>
</radialGradient>
<radialGradient id="paint37_radial_24_1704" cx="0" cy="0" r="1" gradientUnits="userSpaceOnUse" gradientTransform="translate(145.296 10.0171) scale(530.564)">
<stop offset="7e-08" stop-color="#284580"/>
<stop offset="1"/>
</radialGradient>
<radialGradient id="paint38_radial_24_1704" cx="0" cy="0" r="1" gradientUnits="userSpaceOnUse" gradientTransform="translate(101.861 96.2256) scale(402.009)">
<stop stop-color="#67DBFF"/>
<stop offset="1" stop-color="#0068DE"/>
</radialGradient>
<radialGradient id="paint39_radial_24_1704" cx="0" cy="0" r="1" gradientUnits="userSpaceOnUse" gradientTransform="translate(98.242 231.203) scale(303.227)">
<stop stop-color="#67DBFF"/>
<stop offset="1" stop-color="#0053B5"/>
</radialGradient>
<linearGradient id="paint40_linear_24_1704" x1="49.2211" y1="343.06" x2="49.2211" y2="128.968" gradientUnits="userSpaceOnUse">
<stop stop-color="#006E78"/>
<stop offset="1"/>
</linearGradient>
<linearGradient id="paint41_linear_24_1704" x1="128.949" y1="49.2252" x2="343.044" y2="49.2252" gradientUnits="userSpaceOnUse">
<stop stop-color="#006E78"/>
<stop offset="1"/>
</linearGradient>
<linearGradient id="paint42_linear_24_1704" x1="422.789" y1="343.043" x2="422.789" y2="128.951" gradientUnits="userSpaceOnUse">
<stop/>
<stop offset="1" stop-color="#006E78"/>
</linearGradient>
<linearGradient id="paint43_linear_24_1704" x1="128.965" y1="422.787" x2="343.064" y2="422.787" gradientUnits="userSpaceOnUse">
<stop/>
<stop offset="1" stop-color="#006E78"/>
</linearGradient>
</defs>
</svg>
