<svg width="95" height="94" viewBox="0 0 95 94" fill="none" xmlns="http://www.w3.org/2000/svg">
<path fill-rule="evenodd" clip-rule="evenodd" d="M47.0796 5.07184C70.2626 5.07184 89.0083 23.8175 89.0083 47.0005C89.0083 70.1836 70.2626 88.9293 47.0796 88.9293C23.8966 88.9293 5.15088 70.1836 5.15088 47.0005C5.15088 23.8175 23.8966 5.07184 47.0796 5.07184Z" fill="#0C2738"/>
<path fill-rule="evenodd" clip-rule="evenodd" d="M47.0791 5.07129C70.2621 5.07129 89.0078 23.817 89.0078 47C89.0078 70.183 70.2621 88.9287 47.0791 88.9287C23.896 88.9287 5.15037 70.183 5.15037 47C5.15037 23.817 23.896 5.07129 47.0791 5.07129ZM94.0791 47C94.0791 21.0096 73.0695 0 47.0791 0C21.0887 0 0.0791016 21.0096 0.0791016 47C0.0791016 72.9904 21.0887 94 47.0791 94C73.0695 94 94.0791 72.9904 94.0791 47Z" fill="url(#paint0_linear_22_40)"/>
<path fill-rule="evenodd" clip-rule="evenodd" d="M89.0083 47.0005C89.0083 23.8175 70.2626 5.07184 47.0796 5.07184C23.8966 5.07184 5.15088 23.8175 5.15088 47.0005C5.15088 70.1836 23.8966 88.9293 47.0796 88.9293C70.2626 88.9293 89.0083 70.1836 89.0083 47.0005ZM47.0796 10.1431C67.4553 10.1431 83.937 26.6248 83.937 47.0005C83.937 67.3763 67.4553 83.858 47.0796 83.858C26.7039 83.858 10.2222 67.3763 10.2222 47.0005C10.2222 26.6248 26.7039 10.1431 47.0796 10.1431Z" fill="url(#paint1_linear_22_40)"/>
<path fill-rule="evenodd" clip-rule="evenodd" d="M47.0801 10.1425C67.4558 10.1425 83.9375 26.6242 83.9375 46.9999C83.9375 67.3757 67.4558 83.8574 47.0801 83.8574C26.7043 83.8574 10.2227 67.3757 10.2227 46.9999C10.2227 26.6242 26.7043 10.1425 47.0801 10.1425Z" fill="url(#paint2_linear_22_40)"/>
<path fill-rule="evenodd" clip-rule="evenodd" d="M23.7146 23.6361C36.1212 11.2295 56.7686 11.5918 69.6279 24.5417C82.5778 37.4916 82.9401 58.0484 70.5336 70.455C58.127 82.8615 37.4796 82.4993 24.6203 69.5494C11.5798 56.5995 11.2175 36.0427 23.7146 23.6361Z" fill="#F763BB"/>
<path fill-rule="evenodd" clip-rule="evenodd" d="M47.0783 14.7611C64.9184 14.7611 79.3172 29.16 79.3172 47C79.3172 64.8401 64.9184 79.2389 47.0783 79.2389C29.2382 79.2389 14.8394 64.8401 14.8394 47C14.8394 29.16 29.3288 14.7611 47.0783 14.7611Z" fill="url(#paint3_linear_22_40)"/>
<path fill-rule="evenodd" clip-rule="evenodd" d="M31.8652 56.4181L37.7516 62.3044L47.0791 52.8863L56.4972 62.3044L62.3835 56.4181L52.9654 47L62.3835 37.6724L56.4972 31.6956L47.0791 41.1137L37.7516 31.6956L31.8652 37.6724L41.1928 47L31.8652 56.4181Z" fill="white"/>
<defs>
<linearGradient id="paint0_linear_22_40" x1="47.0927" y1="88.9378" x2="47.0927" y2="5.07944" gradientUnits="userSpaceOnUse">
<stop stop-color="#3A587D"/>
<stop offset="1" stop-color="#87B5F5"/>
</linearGradient>
<linearGradient id="paint1_linear_22_40" x1="47.0941" y1="88.9383" x2="47.0941" y2="5.07999" gradientUnits="userSpaceOnUse">
<stop stop-color="#87B5F5"/>
<stop offset="1" stop-color="#3A587D"/>
</linearGradient>
<linearGradient id="paint2_linear_22_40" x1="47.0928" y1="83.8574" x2="47.0928" y2="10.1588" gradientUnits="userSpaceOnUse">
<stop stop-color="#780447"/>
<stop offset="1" stop-color="#DB3B7E"/>
</linearGradient>
<linearGradient id="paint3_linear_22_40" x1="47.0919" y1="79.2534" x2="47.0919" y2="14.7638" gradientUnits="userSpaceOnUse">
<stop stop-color="#B8056D"/>
<stop offset="1" stop-color="#ED669E"/>
</linearGradient>
</defs>
</svg>
