<svg width="570" height="625" viewBox="0 0 570 625" fill="none" xmlns="http://www.w3.org/2000/svg">
<g clip-path="url(#clip0_24_966)">
<g filter="url(#filter0_f_24_966)">
<path d="M512.13 214.385C544.091 214.385 570 188.489 570 156.546C570 124.602 544.091 98.7065 512.13 98.7065C480.169 98.7065 454.26 124.602 454.26 156.546C454.26 188.489 480.169 214.385 512.13 214.385Z" fill="url(#paint0_radial_24_966)" fill-opacity="0.3"/>
</g>
<g filter="url(#filter1_f_24_966)">
<path d="M512.13 524.014C544.091 524.014 570 498.118 570 466.175C570 434.231 544.091 408.336 512.13 408.336C480.169 408.336 454.26 434.231 454.26 466.175C454.26 498.118 480.169 524.014 512.13 524.014Z" fill="url(#paint1_radial_24_966)" fill-opacity="0.3"/>
</g>
<g filter="url(#filter2_f_24_966)">
<path d="M57.8702 214.385C89.831 214.385 115.74 188.489 115.74 156.546C115.74 124.602 89.831 98.7065 57.8702 98.7065C25.9094 98.7065 0 124.602 0 156.546C0 188.489 25.9094 214.385 57.8702 214.385Z" fill="url(#paint2_radial_24_966)" fill-opacity="0.1"/>
</g>
<g filter="url(#filter3_f_24_966)">
<path d="M57.8702 524.014C89.831 524.014 115.74 498.118 115.74 466.175C115.74 434.231 89.831 408.336 57.8702 408.336C25.9094 408.336 0 434.231 0 466.175C0 498.118 25.9094 524.014 57.8702 524.014Z" fill="url(#paint3_radial_24_966)" fill-opacity="0.3"/>
</g>
<path fill-rule="evenodd" clip-rule="evenodd" d="M49.7599 513.881V418.384L31.0049 434.849L34.4686 499.443L49.7599 513.881Z" fill="url(#paint4_linear_24_966)"/>
<path fill-rule="evenodd" clip-rule="evenodd" d="M49.7599 111.119V206.616L31.0049 190.151L34.4686 125.557L49.7599 111.119Z" fill="url(#paint5_linear_24_966)"/>
<path fill-rule="evenodd" clip-rule="evenodd" d="M520.24 513.881V418.384L538.911 434.849L535.531 499.443L520.24 513.881Z" fill="url(#paint6_linear_24_966)"/>
<path fill-rule="evenodd" clip-rule="evenodd" d="M520.24 111.119V206.616L538.911 190.151L535.531 125.557L520.24 111.119Z" fill="url(#paint7_linear_24_966)"/>
<path fill-rule="evenodd" clip-rule="evenodd" d="M49.7598 0H520.325L525.055 4.72845V620.272L520.325 625C366.314 625 205.291 625 49.7598 625L45.0288 620.272V4.72845L49.7598 0Z" fill="url(#paint8_linear_24_966)"/>
<path fill-rule="evenodd" clip-rule="evenodd" d="M54.4907 9.45679H515.509V615.543H54.4907V9.45679Z" fill="url(#paint9_radial_24_966)"/>
<path opacity="0.2" fill-rule="evenodd" clip-rule="evenodd" d="M515.509 615.543V9.45679H468.199L54.4907 478.418V615.543H515.509Z" fill="url(#paint10_radial_24_966)"/>
<path fill-rule="evenodd" clip-rule="evenodd" d="M44.9443 4.72845L49.7598 6.6705L51.7029 4.72845L49.7598 0L44.9443 4.72845Z" fill="url(#paint11_linear_24_966)"/>
<path fill-rule="evenodd" clip-rule="evenodd" d="M51.7029 4.72852L49.7598 6.67056L54.4908 9.45697L51.7029 4.72852Z" fill="url(#paint12_linear_24_966)"/>
<path fill-rule="evenodd" clip-rule="evenodd" d="M518.297 620.271H51.7029L49.7598 625C205.207 625 366.314 625 520.324 625L518.297 620.271Z" fill="url(#paint13_linear_24_966)"/>
<path fill-rule="evenodd" clip-rule="evenodd" d="M51.7031 620.272H518.297L515.509 615.543H54.491L51.7031 620.272Z" fill="url(#paint14_linear_24_966)"/>
<path fill-rule="evenodd" clip-rule="evenodd" d="M49.7599 618.33V508.309V423.956V201.044V116.691V6.67056L44.9444 4.72852V119.478L34.4686 125.557L31.0049 190.151L44.9444 198.257V426.743L31.0049 434.849L34.4686 499.443L44.9444 505.607V620.272L49.7599 618.33Z" fill="url(#paint15_linear_24_966)"/>
<path fill-rule="evenodd" clip-rule="evenodd" d="M515.509 9.45682V615.543L520.24 618.329V6.67041L515.509 9.45682Z" fill="url(#paint16_linear_24_966)"/>
<path fill-rule="evenodd" clip-rule="evenodd" d="M54.4908 9.45682V615.543L49.7598 618.329V6.67041L54.4908 9.45682Z" fill="url(#paint17_linear_24_966)"/>
<path fill-rule="evenodd" clip-rule="evenodd" d="M520.24 618.33V508.309V423.956V201.044V116.691V6.67056L524.971 4.72852V119.478L535.531 125.557L538.911 190.151L524.971 198.257V426.743L538.911 434.849L535.531 499.443L524.971 505.607V620.272L520.24 618.33Z" fill="url(#paint18_linear_24_966)"/>
<path fill-rule="evenodd" clip-rule="evenodd" d="M51.7031 4.72852H518.297L515.509 9.45697H54.491L51.7031 4.72852Z" fill="url(#paint19_linear_24_966)"/>
<path fill-rule="evenodd" clip-rule="evenodd" d="M524.971 620.272L520.24 618.33L518.297 620.272L520.24 625L524.971 620.272Z" fill="url(#paint20_linear_24_966)"/>
<path fill-rule="evenodd" clip-rule="evenodd" d="M518.297 620.272L520.24 618.33L515.509 615.543L518.297 620.272Z" fill="url(#paint21_linear_24_966)"/>
<path fill-rule="evenodd" clip-rule="evenodd" d="M44.9443 620.272L49.7598 618.33L51.7029 620.272L49.7598 625L44.9443 620.272Z" fill="url(#paint22_linear_24_966)"/>
<path fill-rule="evenodd" clip-rule="evenodd" d="M51.7029 620.272L49.7598 618.33L54.4908 615.543L51.7029 620.272Z" fill="url(#paint23_linear_24_966)"/>
<path fill-rule="evenodd" clip-rule="evenodd" d="M524.971 4.72845L520.24 6.6705L518.297 4.72845L520.24 0L524.971 4.72845Z" fill="url(#paint24_linear_24_966)"/>
<path fill-rule="evenodd" clip-rule="evenodd" d="M518.297 4.72852L520.24 6.67056L515.509 9.45697L518.297 4.72852Z" fill="url(#paint25_linear_24_966)"/>
<path fill-rule="evenodd" clip-rule="evenodd" d="M35.3979 174.446L44.9444 179.934V137.801L37.0876 142.36L35.3979 174.446Z" fill="url(#paint26_linear_24_966)"/>
<path fill-rule="evenodd" clip-rule="evenodd" d="M37.8481 173.095L42.5791 175.881V141.854L39.4533 143.711L37.8481 173.095Z" fill="url(#paint27_radial_24_966)"/>
<path fill-rule="evenodd" clip-rule="evenodd" d="M37.0874 142.36L39.4529 143.711L42.5787 141.853L44.9442 137.801L37.0874 142.36Z" fill="#606060"/>
<path fill-rule="evenodd" clip-rule="evenodd" d="M37.8479 173.095L35.3979 174.446L44.9444 179.935L42.5789 175.882L37.8479 173.095Z" fill="url(#paint28_linear_24_966)"/>
<path fill-rule="evenodd" clip-rule="evenodd" d="M35.3979 174.446L37.8479 173.095L39.4531 143.711L37.0876 142.36L35.3979 174.446Z" fill="url(#paint29_linear_24_966)"/>
<path fill-rule="evenodd" clip-rule="evenodd" d="M42.5791 141.853V175.881L44.9446 179.934V137.801L42.5791 141.853Z" fill="url(#paint30_linear_24_966)"/>
<path fill-rule="evenodd" clip-rule="evenodd" d="M35.3979 450.638L44.9444 445.065V487.284L37.0876 482.64L35.3979 450.638Z" fill="url(#paint31_linear_24_966)"/>
<path fill-rule="evenodd" clip-rule="evenodd" d="M37.8481 451.905L42.5791 449.118V483.146L39.4533 481.289L37.8481 451.905Z" fill="url(#paint32_radial_24_966)"/>
<path fill-rule="evenodd" clip-rule="evenodd" d="M37.0874 482.64L39.4529 481.289L42.5787 483.146L44.9442 487.284L37.0874 482.64Z" fill="url(#paint33_linear_24_966)"/>
<path fill-rule="evenodd" clip-rule="evenodd" d="M37.8479 451.905L35.3979 450.638L44.9444 445.065L42.5789 449.118L37.8479 451.905Z" fill="#606060"/>
<path fill-rule="evenodd" clip-rule="evenodd" d="M35.3979 450.638L37.8479 451.905L39.4531 481.289L37.0876 482.64L35.3979 450.638Z" fill="url(#paint34_linear_24_966)"/>
<path fill-rule="evenodd" clip-rule="evenodd" d="M42.5791 483.146V449.118L44.9446 445.065V487.284L42.5791 483.146Z" fill="url(#paint35_linear_24_966)"/>
<path fill-rule="evenodd" clip-rule="evenodd" d="M534.602 174.446L524.971 179.934V137.801L532.913 142.36L534.602 174.446Z" fill="url(#paint36_linear_24_966)"/>
<path fill-rule="evenodd" clip-rule="evenodd" d="M532.152 173.095L527.421 175.881V141.854L530.547 143.711L532.152 173.095Z" fill="url(#paint37_radial_24_966)"/>
<path fill-rule="evenodd" clip-rule="evenodd" d="M532.913 142.36L530.547 143.711L527.421 141.853L524.971 137.801L532.913 142.36Z" fill="#4D4D4D"/>
<path fill-rule="evenodd" clip-rule="evenodd" d="M532.152 173.095L534.602 174.446L524.971 179.935L527.421 175.882L532.152 173.095Z" fill="url(#paint38_linear_24_966)"/>
<path fill-rule="evenodd" clip-rule="evenodd" d="M534.602 174.446L532.152 173.095L530.547 143.711L532.912 142.36L534.602 174.446Z" fill="url(#paint39_linear_24_966)"/>
<path fill-rule="evenodd" clip-rule="evenodd" d="M527.421 141.853V175.881L524.971 179.934V137.801L527.421 141.853Z" fill="url(#paint40_linear_24_966)"/>
<path fill-rule="evenodd" clip-rule="evenodd" d="M534.602 450.638L524.971 445.065V487.284L532.913 482.64L534.602 450.638Z" fill="url(#paint41_linear_24_966)"/>
<path fill-rule="evenodd" clip-rule="evenodd" d="M532.152 451.905L527.421 449.118V483.146L530.547 481.289L532.152 451.905Z" fill="url(#paint42_radial_24_966)"/>
<path fill-rule="evenodd" clip-rule="evenodd" d="M532.913 482.64L530.547 481.289L527.421 483.146L524.971 487.284L532.913 482.64Z" fill="url(#paint43_linear_24_966)"/>
<path fill-rule="evenodd" clip-rule="evenodd" d="M532.152 451.905L534.602 450.638L524.971 445.065L527.421 449.118L532.152 451.905Z" fill="url(#paint44_linear_24_966)"/>
<path fill-rule="evenodd" clip-rule="evenodd" d="M534.602 450.638L532.152 451.905L530.547 481.289L532.912 482.64L534.602 450.638Z" fill="url(#paint45_linear_24_966)"/>
<path fill-rule="evenodd" clip-rule="evenodd" d="M527.421 483.146V449.118L524.971 445.065V487.284L527.421 483.146Z" fill="url(#paint46_linear_24_966)"/>
<path fill-rule="evenodd" clip-rule="evenodd" d="M389.462 33.9436L398.755 43.2316H481.801V114.665L491.094 123.953V129.441V151.395L496.67 156.968V234.143L491.094 239.716V348.892V354.381L481.801 363.669V442.279L491.094 451.567V457.056V591.057H412.695L405.598 570.707H164.402L157.306 591.057H78.9064V504.762L73.3306 499.19V434.595V416.442V332.849V312.247V296.035L78.9064 290.462V137.041L74.5133 132.65V83.9301L78.9064 79.5394V33.9436H119.204H124.696L133.989 43.2316H165.247L174.54 33.9436H180.031H246.857H252.348L261.641 43.2316H330.071L339.364 33.9436H389.462ZM415.145 587.51H451.979L457.724 581.769H419.2L417.933 578.222L412.103 561.419H157.813L150.716 581.769H88.1994V146.329L82.4546 140.587V286.831V332.765V416.357V508.309V587.595H154.771L161.868 567.245H408.048L415.145 587.51ZM421.819 578.222H478.253V116.607V111.119V46.778H402.303H396.812H91.7476V578.222H148.182L155.278 557.873H284.958H414.638L421.819 578.222ZM487.546 453.425V552.047L481.801 557.789V447.683L487.546 453.425ZM487.546 557.535V587.51H457.555L463.299 581.769H481.801V563.277L487.546 557.535ZM82.4546 135.183V37.4899H122.753L128.497 43.2316H88.1994V140.925L82.4546 135.183ZM78.9064 292.826V306.674L75.0202 310.558V296.71L78.9064 292.826ZM75.0202 436.284L78.9064 440.168V502.398L75.0202 498.514V436.284ZM176.483 37.4899H250.405L256.15 43.2316H170.738L176.483 37.4899ZM341.223 37.4899H387.519L393.264 43.2316H335.478L341.223 37.4899ZM487.546 125.895V352.439L481.801 358.18V120.153L487.546 125.895Z" fill="url(#paint47_radial_24_966)"/>
<path fill-rule="evenodd" clip-rule="evenodd" d="M170.738 43.2314H222.357L216.612 37.4897H176.483L170.738 43.2314Z" fill="url(#paint48_linear_24_966)"/>
<path fill-rule="evenodd" clip-rule="evenodd" d="M463.299 581.768L457.47 587.51H487.546V557.535L481.801 563.277V581.768H463.299Z" fill="url(#paint49_linear_24_966)"/>
<path fill-rule="evenodd" clip-rule="evenodd" d="M491.094 445.825V360.038L486.532 364.597V441.266L491.094 445.825Z" fill="#CCCC33"/>
<path fill-rule="evenodd" clip-rule="evenodd" d="M128.497 43.2314L122.752 37.4897H82.4546V135.183L88.1994 140.925V43.2314H128.497Z" fill="url(#paint50_linear_24_966)"/>
<path fill-rule="evenodd" clip-rule="evenodd" d="M424.015 33.9436L428.577 38.5032H490.08L494.642 33.9436H424.015Z" fill="#CCCC33"/>
<path fill-rule="evenodd" clip-rule="evenodd" d="M63.1079 557.789V552.3L70.2044 559.393V564.881L63.1079 557.789ZM63.1079 546.812V541.323L70.2044 548.416V553.904L63.1079 546.812ZM63.1079 535.835V530.347L70.2044 537.439V542.928L63.1079 535.835Z" fill="#CCCC33"/>
<path fill-rule="evenodd" clip-rule="evenodd" d="M487.545 77.1751V82.6635L494.642 75.5708V70.0824L487.545 77.1751ZM487.545 66.1984V71.6867L494.642 64.5941V59.1057L487.545 66.1984ZM487.545 55.2216V60.71L494.642 53.6173V48.1289L487.545 55.2216Z" fill="#CCCC33"/>
<path fill-rule="evenodd" clip-rule="evenodd" d="M78.9061 310.051L75.6958 313.26V378.445L78.9061 381.654V310.051Z" fill="url(#paint51_linear_24_966)"/>
<path fill-rule="evenodd" clip-rule="evenodd" d="M518.297 4.72845H51.7029L49.7598 0H520.24L518.297 4.72845Z" fill="url(#paint52_linear_24_966)"/>
</g>
<defs>
<filter id="filter0_f_24_966" x="450.26" y="94.7065" width="123.74" height="123.678" filterUnits="userSpaceOnUse" color-interpolation-filters="sRGB">
<feFlood flood-opacity="0" result="BackgroundImageFix"/>
<feBlend mode="normal" in="SourceGraphic" in2="BackgroundImageFix" result="shape"/>
<feGaussianBlur stdDeviation="2" result="effect1_foregroundBlur_24_966"/>
</filter>
<filter id="filter1_f_24_966" x="450.26" y="404.336" width="123.74" height="123.678" filterUnits="userSpaceOnUse" color-interpolation-filters="sRGB">
<feFlood flood-opacity="0" result="BackgroundImageFix"/>
<feBlend mode="normal" in="SourceGraphic" in2="BackgroundImageFix" result="shape"/>
<feGaussianBlur stdDeviation="2" result="effect1_foregroundBlur_24_966"/>
</filter>
<filter id="filter2_f_24_966" x="-4" y="94.7065" width="123.74" height="123.678" filterUnits="userSpaceOnUse" color-interpolation-filters="sRGB">
<feFlood flood-opacity="0" result="BackgroundImageFix"/>
<feBlend mode="normal" in="SourceGraphic" in2="BackgroundImageFix" result="shape"/>
<feGaussianBlur stdDeviation="2" result="effect1_foregroundBlur_24_966"/>
</filter>
<filter id="filter3_f_24_966" x="-4" y="404.336" width="123.74" height="123.678" filterUnits="userSpaceOnUse" color-interpolation-filters="sRGB">
<feFlood flood-opacity="0" result="BackgroundImageFix"/>
<feBlend mode="normal" in="SourceGraphic" in2="BackgroundImageFix" result="shape"/>
<feGaussianBlur stdDeviation="2" result="effect1_foregroundBlur_24_966"/>
</filter>
<radialGradient id="paint0_radial_24_966" cx="0" cy="0" r="1" gradientUnits="userSpaceOnUse" gradientTransform="translate(512.141 156.554) scale(57.8541 57.8231)">
<stop stop-color="#CCCC14"/>
<stop offset="0.2009" stop-color="#90900E"/>
<stop offset="0.3983" stop-color="#5C5C09"/>
<stop offset="0.582" stop-color="#343405"/>
<stop offset="0.7491" stop-color="#181802"/>
<stop offset="0.8939" stop-color="#060601"/>
<stop offset="1"/>
</radialGradient>
<radialGradient id="paint1_radial_24_966" cx="0" cy="0" r="1" gradientUnits="userSpaceOnUse" gradientTransform="translate(512.141 466.147) scale(57.8541 57.8231)">
<stop stop-color="#CCCC14"/>
<stop offset="0.2009" stop-color="#90900E"/>
<stop offset="0.3983" stop-color="#5C5C09"/>
<stop offset="0.582" stop-color="#343405"/>
<stop offset="0.7491" stop-color="#181802"/>
<stop offset="0.8939" stop-color="#060601"/>
<stop offset="1"/>
</radialGradient>
<radialGradient id="paint2_radial_24_966" cx="0" cy="0" r="1" gradientUnits="userSpaceOnUse" gradientTransform="translate(57.8541 156.554) rotate(180) scale(57.8541 57.8231)">
<stop stop-color="#CCCC14"/>
<stop offset="0.2009" stop-color="#90900E"/>
<stop offset="0.3983" stop-color="#5C5C09"/>
<stop offset="0.582" stop-color="#343405"/>
<stop offset="0.7491" stop-color="#181802"/>
<stop offset="0.8939" stop-color="#060601"/>
<stop offset="1"/>
</radialGradient>
<radialGradient id="paint3_radial_24_966" cx="0" cy="0" r="1" gradientUnits="userSpaceOnUse" gradientTransform="translate(57.8541 466.147) rotate(180) scale(57.8541 57.8231)">
<stop stop-color="#CCCC14"/>
<stop offset="0.2009" stop-color="#90900E"/>
<stop offset="0.3983" stop-color="#5C5C09"/>
<stop offset="0.582" stop-color="#343405"/>
<stop offset="0.7491" stop-color="#181802"/>
<stop offset="0.8939" stop-color="#060601"/>
<stop offset="1"/>
</radialGradient>
<linearGradient id="paint4_linear_24_966" x1="31.0454" y1="466.147" x2="49.7219" y2="466.147" gradientUnits="userSpaceOnUse">
<stop stop-color="#204954"/>
<stop offset="1" stop-color="#1B3840"/>
</linearGradient>
<linearGradient id="paint5_linear_24_966" x1="31.0454" y1="158.868" x2="49.7219" y2="158.868" gradientUnits="userSpaceOnUse">
<stop stop-color="#204954"/>
<stop offset="1" stop-color="#1B3840"/>
</linearGradient>
<linearGradient id="paint6_linear_24_966" x1="520.271" y1="466.147" x2="538.95" y2="466.147" gradientUnits="userSpaceOnUse">
<stop stop-color="#1B3840"/>
<stop offset="1" stop-color="#204954"/>
</linearGradient>
<linearGradient id="paint7_linear_24_966" x1="520.271" y1="158.868" x2="538.95" y2="158.868" gradientUnits="userSpaceOnUse">
<stop stop-color="#1B3840"/>
<stop offset="1" stop-color="#204954"/>
</linearGradient>
<linearGradient id="paint8_linear_24_966" x1="284.997" y1="625.015" x2="284.997" y2="0" gradientUnits="userSpaceOnUse">
<stop stop-color="#6287C9"/>
<stop offset="1" stop-color="#3B597D"/>
</linearGradient>
<radialGradient id="paint9_radial_24_966" cx="0" cy="0" r="1" gradientUnits="userSpaceOnUse" gradientTransform="translate(290.97 15.4653) scale(535.47 535.182)">
<stop stop-color="#BF0000"/>
<stop offset="0.1352" stop-color="#9F020B"/>
<stop offset="0.2857" stop-color="#830404"/>
<stop offset="0.4168" stop-color="#710505"/>
<stop offset="0.513" stop-color="#6B0505"/>
<stop offset="0.6195" stop-color="#600707"/>
<stop offset="0.8351" stop-color="#500909"/>
<stop offset="1" stop-color="#4A0A0A"/>
</radialGradient>
<radialGradient id="paint10_radial_24_966" cx="0" cy="0" r="1" gradientUnits="userSpaceOnUse" gradientTransform="translate(156.559 13.9725) scale(693.014 692.642)">
<stop offset="7e-08" stop-color="#802828"/>
<stop offset="1"/>
</radialGradient>
<linearGradient id="paint11_linear_24_966" x1="48.3354" y1="6.69751" x2="48.3354" y2="0" gradientUnits="userSpaceOnUse">
<stop stop-color="#6287C9"/>
<stop offset="1" stop-color="#3B597D"/>
</linearGradient>
<linearGradient id="paint12_linear_24_966" x1="52.0915" y1="9.47217" x2="52.0915" y2="4.73611" gradientUnits="userSpaceOnUse">
<stop stop-color="#6287C9"/>
<stop offset="1" stop-color="#3B597D"/>
</linearGradient>
<linearGradient id="paint13_linear_24_966" x1="284.996" y1="625.015" x2="284.996" y2="620.278" gradientUnits="userSpaceOnUse">
<stop stop-color="#204270"/>
<stop offset="1" stop-color="#335D94"/>
</linearGradient>
<linearGradient id="paint14_linear_24_966" x1="284.998" y1="620.278" x2="284.998" y2="615.542" gradientUnits="userSpaceOnUse">
<stop stop-color="#87B5F5"/>
<stop offset="1" stop-color="#4E76A6"/>
</linearGradient>
<linearGradient id="paint15_linear_24_966" x1="31.0454" y1="312.507" x2="49.7219" y2="312.507" gradientUnits="userSpaceOnUse">
<stop stop-color="#4E76A6"/>
<stop offset="1" stop-color="#87B5F5"/>
</linearGradient>
<linearGradient id="paint16_linear_24_966" x1="515.533" y1="312.507" x2="520.272" y2="312.507" gradientUnits="userSpaceOnUse">
<stop stop-color="#4E76A6"/>
<stop offset="1" stop-color="#87B5F5"/>
</linearGradient>
<linearGradient id="paint17_linear_24_966" x1="49.7217" y1="312.507" x2="54.4612" y2="312.507" gradientUnits="userSpaceOnUse">
<stop stop-color="#335D94"/>
<stop offset="1" stop-color="#204270"/>
</linearGradient>
<linearGradient id="paint18_linear_24_966" x1="520.271" y1="312.507" x2="538.95" y2="312.507" gradientUnits="userSpaceOnUse">
<stop stop-color="white"/>
<stop offset="1" stop-color="#204270"/>
<stop offset="1" stop-color="#F7FFE1"/>
</linearGradient>
<linearGradient id="paint19_linear_24_966" x1="284.998" y1="9.47217" x2="284.998" y2="4.73611" gradientUnits="userSpaceOnUse">
<stop stop-color="#204270"/>
<stop offset="1" stop-color="#335D94"/>
</linearGradient>
<linearGradient id="paint20_linear_24_966" x1="521.659" y1="625.015" x2="521.659" y2="618.317" gradientUnits="userSpaceOnUse">
<stop stop-color="#6287C9"/>
<stop offset="1" stop-color="#3B597D"/>
</linearGradient>
<linearGradient id="paint21_linear_24_966" x1="517.902" y1="620.278" x2="517.902" y2="615.542" gradientUnits="userSpaceOnUse">
<stop stop-color="#6287C9"/>
<stop offset="1" stop-color="#3B597D"/>
</linearGradient>
<linearGradient id="paint22_linear_24_966" x1="48.3354" y1="625.015" x2="48.3354" y2="618.317" gradientUnits="userSpaceOnUse">
<stop stop-color="#6287C9"/>
<stop offset="1" stop-color="#3B597D"/>
</linearGradient>
<linearGradient id="paint23_linear_24_966" x1="52.0915" y1="620.278" x2="52.0915" y2="615.542" gradientUnits="userSpaceOnUse">
<stop stop-color="#6287C9"/>
<stop offset="1" stop-color="#3B597D"/>
</linearGradient>
<linearGradient id="paint24_linear_24_966" x1="521.659" y1="6.69751" x2="521.659" y2="0" gradientUnits="userSpaceOnUse">
<stop stop-color="#6287C9"/>
<stop offset="1" stop-color="#3B597D"/>
</linearGradient>
<linearGradient id="paint25_linear_24_966" x1="517.902" y1="9.47217" x2="517.902" y2="4.73611" gradientUnits="userSpaceOnUse">
<stop stop-color="#6287C9"/>
<stop offset="1" stop-color="#3B597D"/>
</linearGradient>
<linearGradient id="paint26_linear_24_966" x1="40.2092" y1="179.974" x2="40.2092" y2="137.762" gradientUnits="userSpaceOnUse">
<stop stop-color="#6287C9"/>
<stop offset="1" stop-color="#3B597D"/>
</linearGradient>
<radialGradient id="paint27_radial_24_966" cx="0" cy="0" r="1" gradientUnits="userSpaceOnUse" gradientTransform="translate(40.2457 158.868) scale(12.135 12.1285)">
<stop stop-color="#F8FC86"/>
<stop offset="1" stop-color="#EDCE20"/>
</radialGradient>
<linearGradient id="paint28_linear_24_966" x1="40.2092" y1="179.974" x2="40.2092" y2="173.096" gradientUnits="userSpaceOnUse">
<stop stop-color="#6287C9"/>
<stop offset="1" stop-color="#3B597D"/>
</linearGradient>
<linearGradient id="paint29_linear_24_966" x1="37.4247" y1="174.416" x2="37.4247" y2="142.34" gradientUnits="userSpaceOnUse">
<stop stop-color="#6287C9"/>
<stop offset="1" stop-color="#3B597D"/>
</linearGradient>
<linearGradient id="paint30_linear_24_966" x1="43.8007" y1="179.974" x2="43.8007" y2="137.762" gradientUnits="userSpaceOnUse">
<stop stop-color="#6287C9"/>
<stop offset="1" stop-color="#3B597D"/>
</linearGradient>
<linearGradient id="paint31_linear_24_966" x1="40.2092" y1="487.253" x2="40.2092" y2="445.041" gradientUnits="userSpaceOnUse">
<stop stop-color="#6287C9"/>
<stop offset="1" stop-color="#3B597D"/>
</linearGradient>
<radialGradient id="paint32_radial_24_966" cx="0" cy="0" r="1" gradientUnits="userSpaceOnUse" gradientTransform="translate(40.2457 466.147) scale(12.1341 12.1276)">
<stop stop-color="#F8FC86"/>
<stop offset="1" stop-color="#EDCE20"/>
</radialGradient>
<linearGradient id="paint33_linear_24_966" x1="41.0505" y1="487.253" x2="41.0505" y2="481.273" gradientUnits="userSpaceOnUse">
<stop stop-color="#6287C9"/>
<stop offset="1" stop-color="#3B597D"/>
</linearGradient>
<linearGradient id="paint34_linear_24_966" x1="37.4247" y1="482.675" x2="37.4247" y2="450.599" gradientUnits="userSpaceOnUse">
<stop stop-color="#6287C9"/>
<stop offset="1" stop-color="#3B597D"/>
</linearGradient>
<linearGradient id="paint35_linear_24_966" x1="43.8007" y1="487.253" x2="43.8007" y2="445.041" gradientUnits="userSpaceOnUse">
<stop stop-color="#6287C9"/>
<stop offset="1" stop-color="#3B597D"/>
</linearGradient>
<linearGradient id="paint36_linear_24_966" x1="529.787" y1="179.974" x2="529.787" y2="137.762" gradientUnits="userSpaceOnUse">
<stop stop-color="#6287C9"/>
<stop offset="1" stop-color="#3B597D"/>
</linearGradient>
<radialGradient id="paint37_radial_24_966" cx="0" cy="0" r="1" gradientUnits="userSpaceOnUse" gradientTransform="translate(529.751 158.868) scale(12.135 12.1285)">
<stop stop-color="#F8FC86"/>
<stop offset="1" stop-color="#EDCE20"/>
</radialGradient>
<linearGradient id="paint38_linear_24_966" x1="529.787" y1="179.974" x2="529.787" y2="173.096" gradientUnits="userSpaceOnUse">
<stop stop-color="#6287C9"/>
<stop offset="1" stop-color="#3B597D"/>
</linearGradient>
<linearGradient id="paint39_linear_24_966" x1="532.57" y1="174.416" x2="532.57" y2="142.34" gradientUnits="userSpaceOnUse">
<stop stop-color="#6287C9"/>
<stop offset="1" stop-color="#3B597D"/>
</linearGradient>
<linearGradient id="paint40_linear_24_966" x1="526.196" y1="179.974" x2="526.196" y2="137.762" gradientUnits="userSpaceOnUse">
<stop stop-color="#6287C9"/>
<stop offset="1" stop-color="#3B597D"/>
</linearGradient>
<linearGradient id="paint41_linear_24_966" x1="529.787" y1="487.253" x2="529.787" y2="445.041" gradientUnits="userSpaceOnUse">
<stop stop-color="#6287C9"/>
<stop offset="1" stop-color="#3B597D"/>
</linearGradient>
<radialGradient id="paint42_radial_24_966" cx="0" cy="0" r="1" gradientUnits="userSpaceOnUse" gradientTransform="translate(529.751 466.147) scale(12.1342 12.1276)">
<stop stop-color="#F8FC86"/>
<stop offset="1" stop-color="#EDCE20"/>
</radialGradient>
<linearGradient id="paint43_linear_24_966" x1="528.944" y1="487.253" x2="528.944" y2="481.273" gradientUnits="userSpaceOnUse">
<stop stop-color="#99B2BF"/>
<stop offset="1" stop-color="#9BBD67"/>
</linearGradient>
<linearGradient id="paint44_linear_24_966" x1="529.787" y1="451.918" x2="529.787" y2="445.041" gradientUnits="userSpaceOnUse">
<stop stop-color="#94885C"/>
<stop offset="1" stop-color="#2C507A"/>
</linearGradient>
<linearGradient id="paint45_linear_24_966" x1="532.57" y1="482.675" x2="532.57" y2="450.599" gradientUnits="userSpaceOnUse">
<stop stop-color="#739CB0"/>
<stop offset="1" stop-color="#476B96"/>
</linearGradient>
<linearGradient id="paint46_linear_24_966" x1="526.196" y1="487.253" x2="526.196" y2="445.041" gradientUnits="userSpaceOnUse">
<stop stop-color="#739CB0"/>
<stop offset="1" stop-color="#476B96"/>
</linearGradient>
<radialGradient id="paint47_radial_24_966" cx="0" cy="0" r="1" gradientUnits="userSpaceOnUse" gradientTransform="translate(77.4068 33.3779) scale(690.258 689.888)">
<stop stop-color="white"/>
<stop offset="1" stop-color="#FFFCB3"/>
</radialGradient>
<linearGradient id="paint48_linear_24_966" x1="170.726" y1="40.3462" x2="222.351" y2="40.3462" gradientUnits="userSpaceOnUse">
<stop stop-color="#006E78"/>
<stop offset="1" stop-color="#00393D"/>
</linearGradient>
<linearGradient id="paint49_linear_24_966" x1="487.518" y1="587.541" x2="472.523" y2="572.538" gradientUnits="userSpaceOnUse">
<stop/>
<stop offset="1" stop-color="#006E78"/>
</linearGradient>
<linearGradient id="paint50_linear_24_966" x1="122.728" y1="106.404" x2="68.1473" y2="51.7953" gradientUnits="userSpaceOnUse">
<stop stop-color="#006E78"/>
<stop offset="1"/>
</linearGradient>
<linearGradient id="paint51_linear_24_966" x1="77.3271" y1="381.654" x2="77.3271" y2="310.045" gradientUnits="userSpaceOnUse">
<stop stop-color="#00164F"/>
<stop offset="0.0248" stop-color="#001752"/>
<stop offset="0.4563" stop-color="#04257B"/>
<stop offset="0.796" stop-color="#062E95"/>
<stop offset="1" stop-color="#07319E"/>
</linearGradient>
<linearGradient id="paint52_linear_24_966" x1="284.996" y1="4.73605" x2="284.996" y2="0" gradientUnits="userSpaceOnUse">
<stop stop-color="#9FA64E"/>
<stop offset="1" stop-color="#DFF587"/>
</linearGradient>
<clipPath id="clip0_24_966">
<rect width="570" height="625" fill="white"/>
</clipPath>
</defs>
</svg>
