<svg width="43" height="43" viewBox="0 0 43 43" fill="none" xmlns="http://www.w3.org/2000/svg">
<path fill-rule="evenodd" clip-rule="evenodd" d="M21.5002 2.32013C32.1052 2.32013 40.6804 10.8953 40.6804 21.5003C40.6804 32.1053 32.1052 40.6804 21.5002 40.6804C10.8952 40.6804 2.32007 32.1053 2.32007 21.5003C2.32007 10.8953 10.8952 2.32013 21.5002 2.32013Z" fill="#0C2738"/>
<path fill-rule="evenodd" clip-rule="evenodd" d="M21.5 2.31985C32.105 2.31985 40.6801 10.895 40.6801 21.5C40.6801 32.105 32.105 40.6802 21.5 40.6802C10.895 40.6802 2.31984 32.105 2.31984 21.5C2.31984 10.895 10.895 2.31985 21.5 2.31985ZM43 21.5C43 9.61079 33.3892 0 21.5 0C9.61078 0 0 9.61079 0 21.5C0 33.3892 9.61078 43 21.5 43C33.3892 43 43 33.3892 43 21.5Z" fill="url(#paint0_linear_24_1507)"/>
<path fill-rule="evenodd" clip-rule="evenodd" d="M40.6804 21.5003C40.6804 10.8953 32.1052 2.32013 21.5002 2.32013C10.8952 2.32013 2.32007 10.8953 2.32007 21.5003C2.32007 32.1053 10.8952 40.6804 21.5002 40.6804C32.1052 40.6804 40.6804 32.1053 40.6804 21.5003ZM21.5002 4.63998C30.821 4.63998 38.3605 12.1795 38.3605 21.5003C38.3605 30.8211 30.821 38.3606 21.5002 38.3606C12.1794 38.3606 4.63991 30.8211 4.63991 21.5003C4.63991 12.1795 12.1794 4.63998 21.5002 4.63998Z" fill="url(#paint1_linear_24_1507)"/>
<path fill-rule="evenodd" clip-rule="evenodd" d="M21.5004 4.63965C30.8213 4.63965 38.3608 12.1791 38.3608 21.5C38.3608 30.8208 30.8213 38.3603 21.5004 38.3603C12.1796 38.3603 4.64014 30.8208 4.64014 21.5C4.64014 12.1791 12.1796 4.63965 21.5004 4.63965Z" fill="url(#paint2_linear_24_1507)"/>
<path fill-rule="evenodd" clip-rule="evenodd" d="M10.8121 10.8123C16.4874 5.13695 25.9325 5.30266 31.815 11.2266C37.7389 17.1504 37.9046 26.5541 32.2292 32.2294C26.5539 37.9048 17.1088 37.7391 11.2264 31.8152C5.26103 25.8913 5.09533 16.4876 10.8121 10.8123Z" fill="#1D71B8"/>
<path fill-rule="evenodd" clip-rule="evenodd" d="M21.4995 6.75244C29.6604 6.75244 36.2471 13.3391 36.2471 21.5C36.2471 29.6609 29.6604 36.2476 21.4995 36.2476C13.3387 36.2476 6.75195 29.6609 6.75195 21.5C6.75195 13.3391 13.3387 6.75244 21.4995 6.75244Z" fill="url(#paint3_linear_24_1507)"/>
<path d="M22.6805 16.1111C24.0306 16.1111 25.125 15.0167 25.125 13.6667C25.125 12.3166 24.0306 11.2222 22.6805 11.2222C21.3305 11.2222 20.2361 12.3166 20.2361 13.6667C20.2361 15.0167 21.3305 16.1111 22.6805 16.1111Z" fill="white"/>
<path d="M25.1799 26.0294C25.1124 25.984 25.0365 25.9525 24.9566 25.9368C24.8768 25.9212 24.7946 25.9216 24.7149 25.9381C24.6352 25.9546 24.5596 25.9869 24.4925 26.033C24.4255 26.0791 24.3683 26.1381 24.3244 26.2067C23.7336 27.0816 23.0099 27.8589 22.1794 28.5106C21.9777 28.6633 21.226 29.2439 20.9083 29.1217C20.6883 29.0544 20.8166 28.6206 20.8594 28.4372L21.1833 27.4778C21.3177 27.0867 23.6583 20.1444 23.9149 19.35C24.2938 18.1889 24.1288 17.0461 22.3994 17.3211C21.9288 17.37 17.156 17.9872 17.0705 17.9933C16.9902 17.9985 16.9118 18.0195 16.8396 18.055C16.7675 18.0906 16.7031 18.14 16.65 18.2004C16.5969 18.2608 16.5563 18.3311 16.5304 18.4073C16.5045 18.4834 16.4939 18.5639 16.4991 18.6442C16.5043 18.7244 16.5253 18.8029 16.5608 18.875C16.5963 18.9471 16.6457 19.0116 16.7062 19.0646C16.7666 19.1177 16.8369 19.1583 16.913 19.1842C16.9892 19.2101 17.0697 19.2208 17.1499 19.2156C17.1499 19.2156 18.9833 18.9772 19.1849 18.9589C19.2882 18.9488 19.3922 18.9688 19.4844 19.0165C19.5766 19.0642 19.653 19.1376 19.7044 19.2278C19.8151 19.5701 19.7999 19.9407 19.6616 20.2728C19.5027 20.8839 16.991 27.9606 16.9116 28.37C16.8264 28.7126 16.85 29.0733 16.9793 29.4019C17.1085 29.7304 17.3369 30.0106 17.6327 30.2033C18.1879 30.5734 18.849 30.7515 19.5149 30.7106C20.1624 30.7026 20.8028 30.5742 21.4033 30.3317C22.9249 29.7206 24.5138 28.095 25.351 26.8178C25.4231 26.688 25.4455 26.5364 25.414 26.3914C25.3825 26.2463 25.2993 26.1176 25.1799 26.0294V26.0294Z" fill="white"/>
<defs>
<linearGradient id="paint0_linear_24_1507" x1="21.505" y1="40.6843" x2="21.505" y2="2.32357" gradientUnits="userSpaceOnUse">
<stop stop-color="#3A587D"/>
<stop offset="1" stop-color="#87B5F5"/>
</linearGradient>
<linearGradient id="paint1_linear_24_1507" x1="21.5056" y1="40.6846" x2="21.5056" y2="2.32386" gradientUnits="userSpaceOnUse">
<stop stop-color="#87B5F5"/>
<stop offset="1" stop-color="#3A587D"/>
</linearGradient>
<linearGradient id="paint2_linear_24_1507" x1="21.505" y1="38.3603" x2="21.505" y2="4.6471" gradientUnits="userSpaceOnUse">
<stop stop-color="#00164F"/>
<stop offset="0.0248" stop-color="#001752"/>
<stop offset="0.4563" stop-color="#04257B"/>
<stop offset="0.796" stop-color="#062E95"/>
<stop offset="1" stop-color="#07319E"/>
</linearGradient>
<linearGradient id="paint3_linear_24_1507" x1="21.5045" y1="36.2542" x2="21.5045" y2="6.75368" gradientUnits="userSpaceOnUse">
<stop stop-color="#001E6B"/>
<stop offset="1" stop-color="#0056BF"/>
</linearGradient>
</defs>
</svg>
