<svg width="43" height="43" viewBox="0 0 43 43" fill="none" xmlns="http://www.w3.org/2000/svg">
<path fill-rule="evenodd" clip-rule="evenodd" d="M21.5002 2.32007C32.1053 2.32007 40.6804 10.8952 40.6804 21.5002C40.6804 32.1053 32.1053 40.6804 21.5002 40.6804C10.8952 40.6804 2.32007 32.1053 2.32007 21.5002C2.32007 10.8952 10.8952 2.32007 21.5002 2.32007Z" fill="#0C2738"/>
<path fill-rule="evenodd" clip-rule="evenodd" d="M21.5 2.31985C32.105 2.31985 40.6802 10.895 40.6802 21.5C40.6802 32.105 32.105 40.6802 21.5 40.6802C10.895 40.6802 2.31984 32.105 2.31984 21.5C2.31984 10.895 10.895 2.31985 21.5 2.31985ZM43 21.5C43 9.6108 33.3892 0 21.5 0C9.61079 0 0 9.6108 0 21.5C0 33.3892 9.61079 43 21.5 43C33.3892 43 43 33.3892 43 21.5Z" fill="url(#paint0_linear_31_456)"/>
<path fill-rule="evenodd" clip-rule="evenodd" d="M40.6804 21.5002C40.6804 10.8952 32.1053 2.32007 21.5002 2.32007C10.8952 2.32007 2.32007 10.8952 2.32007 21.5002C2.32007 32.1053 10.8952 40.6804 21.5002 40.6804C32.1053 40.6804 40.6804 32.1053 40.6804 21.5002ZM21.5002 4.63992C30.8211 4.63992 38.3606 12.1794 38.3606 21.5002C38.3606 30.8211 30.8211 38.3606 21.5002 38.3606C12.1794 38.3606 4.63992 30.8211 4.63992 21.5002C4.63992 12.1794 12.1794 4.63992 21.5002 4.63992Z" fill="url(#paint1_linear_31_456)"/>
<path fill-rule="evenodd" clip-rule="evenodd" d="M21.5005 4.63959C30.8213 4.63959 38.3608 12.1791 38.3608 21.4999C38.3608 30.8207 30.8213 38.3602 21.5005 38.3602C12.1796 38.3602 4.64014 30.8207 4.64014 21.4999C4.64014 12.1791 12.1796 4.63959 21.5005 4.63959Z" fill="url(#paint2_linear_31_456)"/>
<path fill-rule="evenodd" clip-rule="evenodd" d="M10.8116 10.8122C16.4869 5.13689 25.932 5.3026 31.8145 11.2265C37.7384 17.1504 37.9041 26.5541 32.2288 32.2294C26.5534 37.9047 17.1083 37.739 11.2259 31.8151C5.26055 25.8912 5.09484 16.4876 10.8116 10.8122Z" fill="#F763BB"/>
<path fill-rule="evenodd" clip-rule="evenodd" d="M21.4996 6.75244C29.6605 6.75244 36.2472 13.3392 36.2472 21.5C36.2472 29.6609 29.6605 36.2476 21.4996 36.2476C13.3387 36.2476 6.75195 29.6609 6.75195 21.5C6.75195 13.3392 13.3801 6.75244 21.4996 6.75244Z" fill="url(#paint3_linear_31_456)"/>
<path d="M16.9583 29.25H13.7499C13.2458 29.25 12.8333 28.8375 12.8333 28.3333V19.1667C12.8333 18.6625 13.2458 18.25 13.7499 18.25H16.9583C17.4624 18.25 17.8749 18.6625 17.8749 19.1667V28.3333C17.8749 28.8375 17.4624 29.25 16.9583 29.25ZM23.6041 12.75H20.3958C19.8916 12.75 19.4791 13.1625 19.4791 13.6667V28.3333C19.4791 28.8375 19.8916 29.25 20.3958 29.25H23.6041C24.1083 29.25 24.5208 28.8375 24.5208 28.3333V13.6667C24.5208 13.1625 24.1083 12.75 23.6041 12.75ZM30.2499 20.0833H27.0416C26.5374 20.0833 26.1249 20.4958 26.1249 21V28.3333C26.1249 28.8375 26.5374 29.25 27.0416 29.25H30.2499C30.7541 29.25 31.1666 28.8375 31.1666 28.3333V21C31.1666 20.4958 30.7541 20.0833 30.2499 20.0833Z" fill="white"/>
<defs>
<linearGradient id="paint0_linear_31_456" x1="21.5062" y1="40.6843" x2="21.5062" y2="2.32357" gradientUnits="userSpaceOnUse">
<stop stop-color="#3A587D"/>
<stop offset="1" stop-color="#87B5F5"/>
</linearGradient>
<linearGradient id="paint1_linear_31_456" x1="21.5069" y1="40.6845" x2="21.5069" y2="2.3238" gradientUnits="userSpaceOnUse">
<stop stop-color="#87B5F5"/>
<stop offset="1" stop-color="#3A587D"/>
</linearGradient>
<linearGradient id="paint2_linear_31_456" x1="21.5063" y1="38.3602" x2="21.5063" y2="4.64704" gradientUnits="userSpaceOnUse">
<stop stop-color="#780447"/>
<stop offset="1" stop-color="#DB3B7E"/>
</linearGradient>
<linearGradient id="paint3_linear_31_456" x1="21.5058" y1="36.2543" x2="21.5058" y2="6.75368" gradientUnits="userSpaceOnUse">
<stop stop-color="#B8056D"/>
<stop offset="1" stop-color="#ED669E"/>
</linearGradient>
</defs>
</svg>
