<svg width="43" height="43" viewBox="0 0 43 43" fill="none" xmlns="http://www.w3.org/2000/svg">
<path fill-rule="evenodd" clip-rule="evenodd" d="M21.5002 2.32007C32.1052 2.32007 40.6804 10.8952 40.6804 21.5002C40.6804 32.1053 32.1052 40.6804 21.5002 40.6804C10.8952 40.6804 2.32007 32.1053 2.32007 21.5002C2.32007 10.8952 10.8952 2.32007 21.5002 2.32007Z" fill="#0C2738"/>
<path fill-rule="evenodd" clip-rule="evenodd" d="M21.5 2.31985C32.105 2.31985 40.6802 10.895 40.6802 21.5C40.6802 32.105 32.105 40.6802 21.5 40.6802C10.895 40.6802 2.31984 32.105 2.31984 21.5C2.31984 10.895 10.895 2.31985 21.5 2.31985ZM43 21.5C43 9.6108 33.3892 0 21.5 0C9.61078 0 0 9.6108 0 21.5C0 33.3892 9.61078 43 21.5 43C33.3892 43 43 33.3892 43 21.5Z" fill="url(#paint0_linear_24_1487)"/>
<path fill-rule="evenodd" clip-rule="evenodd" d="M40.6804 21.5002C40.6804 10.8952 32.1052 2.32007 21.5002 2.32007C10.8952 2.32007 2.32007 10.8952 2.32007 21.5002C2.32007 32.1053 10.8952 40.6804 21.5002 40.6804C32.1052 40.6804 40.6804 32.1053 40.6804 21.5002ZM21.5002 4.63992C30.821 4.63992 38.3605 12.1794 38.3605 21.5002C38.3605 30.8211 30.821 38.3606 21.5002 38.3606C12.1794 38.3606 4.63991 30.8211 4.63991 21.5002C4.63991 12.1794 12.1794 4.63992 21.5002 4.63992Z" fill="url(#paint1_linear_24_1487)"/>
<path fill-rule="evenodd" clip-rule="evenodd" d="M21.4995 4.63965C30.8203 4.63965 38.3598 12.1792 38.3598 21.5C38.3598 30.8208 30.8203 38.3603 21.4995 38.3603C12.1787 38.3603 4.63916 30.8208 4.63916 21.5C4.63916 12.1792 12.1787 4.63965 21.4995 4.63965Z" fill="url(#paint2_linear_24_1487)"/>
<path opacity="0.5" fill-rule="evenodd" clip-rule="evenodd" d="M10.8118 10.8123C16.4871 5.13695 25.9322 5.30266 31.8147 11.2266C37.7386 17.1505 37.9043 26.5541 32.2289 32.2295C26.5122 37.9048 17.1085 37.7391 11.1846 31.8152C5.26071 25.8913 5.09502 16.4876 10.8118 10.8123Z" fill="#50E26B"/>
<path fill-rule="evenodd" clip-rule="evenodd" d="M21.4995 6.75238C29.6604 6.75238 36.2472 13.3391 36.2472 21.5C36.2472 29.6609 29.6604 36.2476 21.4995 36.2476C13.3387 36.2476 6.75195 29.6609 6.75195 21.5C6.75195 13.3391 13.3801 6.75238 21.4995 6.75238Z" fill="url(#paint3_linear_24_1487)"/>
<path d="M21.5 12.5417C17.5485 12.5417 14.3333 15.7568 14.3333 19.7039C14.3073 25.4775 21.2277 30.2649 21.5 30.4584C21.5 30.4584 28.6926 25.4775 28.6667 19.7084C28.6667 15.7568 25.4515 12.5417 21.5 12.5417ZM21.5 23.2917C19.5202 23.2917 17.9167 21.6882 17.9167 19.7084C17.9167 17.7286 19.5202 16.125 21.5 16.125C23.4798 16.125 25.0833 17.7286 25.0833 19.7084C25.0833 21.6882 23.4798 23.2917 21.5 23.2917Z" fill="white"/>
<defs>
<linearGradient id="paint0_linear_24_1487" x1="21.5075" y1="40.6843" x2="21.5075" y2="2.32357" gradientUnits="userSpaceOnUse">
<stop stop-color="#3A587D"/>
<stop offset="1" stop-color="#87B5F5"/>
</linearGradient>
<linearGradient id="paint1_linear_24_1487" x1="21.5077" y1="40.6845" x2="21.5077" y2="2.3238" gradientUnits="userSpaceOnUse">
<stop stop-color="#87B5F5"/>
<stop offset="1" stop-color="#3A587D"/>
</linearGradient>
<linearGradient id="paint2_linear_24_1487" x1="21.5061" y1="38.3603" x2="21.5061" y2="4.6471" gradientUnits="userSpaceOnUse">
<stop stop-color="#00402E"/>
<stop offset="0.1439" stop-color="#015234"/>
<stop offset="0.5226" stop-color="#047B43"/>
<stop offset="0.821" stop-color="#06954D"/>
<stop offset="1" stop-color="#079E50"/>
</linearGradient>
<linearGradient id="paint3_linear_24_1487" x1="21.507" y1="36.2542" x2="21.507" y2="6.75362" gradientUnits="userSpaceOnUse">
<stop stop-color="#006147"/>
<stop offset="1" stop-color="#00BF69"/>
</linearGradient>
</defs>
</svg>
