<svg width="411" height="769" viewBox="0 0 411 769" fill="none" xmlns="http://www.w3.org/2000/svg">
<g clip-path="url(#clip0_45_667)">
<path d="M23 16H384.5L386.3 19L389 23.5V753H23V16Z" fill="url(#paint0_linear_45_667)"/>
<path fill-rule="evenodd" clip-rule="evenodd" d="M205.57 754.939H207.524H389.508V20.7945L385.042 13.863H205.849H205.43H21.6316V754.939H205.57ZM0 752.166V527.784L11.8625 510.95V498.077L0 515.109V502.236L11.8625 485.403V472.53L0 489.364V476.491L11.8625 459.657V446.784L0 463.618V450.745L11.8625 433.912V421.039L0 437.872V425L11.8625 408.166V395.293L0 412.127V399.254L11.8625 382.421V369.548L0 386.381V373.509L11.8625 356.675V343.802L1.95382 357.863V344.99L11.8625 330.929V318.057L4.60543 328.355V315.482L11.8625 305.184V0H205.57H205.988H389.229L411.14 31.0927V526.794L399.277 543.627V584.622L407.511 596.307V758.504L400.254 769H399.417H395.509H208.78H11.8625L0 752.166ZM208.221 5.5452H15.7701V763.257H205.57H395.369V578.879V16.6356L387.554 5.5452H208.221ZM205.57 16.6356H205.988H207.663H384.344L387.694 21.7847V752.166H205.57H23.5854V16.6356H205.57ZM399.277 762.267V592.346L403.603 598.485V756.127L399.277 762.267ZM11.8625 629.974V519.07L3.90764 530.358V618.884L11.8625 629.974ZM407.092 292.509V361.824L399.138 373.113V303.798L407.092 292.509ZM407.092 33.4692V287.162L399.138 298.45V22.1808L407.092 33.4692Z" fill="url(#paint1_radial_45_667)"/>
</g>
<defs>
<linearGradient id="paint0_linear_45_667" x1="206" y1="16" x2="206" y2="753" gradientUnits="userSpaceOnUse">
<stop stop-color="#023C95"/>
<stop offset="1" stop-color="#081943"/>
</linearGradient>
<radialGradient id="paint1_radial_45_667" cx="0" cy="0" r="1" gradientUnits="userSpaceOnUse" gradientTransform="translate(3.22939 -2.99044) scale(502.189 712.639)">
<stop stop-color="#31B2DA"/>
<stop offset="1" stop-color="#0053B1"/>
</radialGradient>
<clipPath id="clip0_45_667">
<rect width="411" height="769" fill="white"/>
</clipPath>
</defs>
</svg>
