<svg width="370" height="70" viewBox="0 0 370 70" fill="none" xmlns="http://www.w3.org/2000/svg">
<path fill-rule="evenodd" clip-rule="evenodd" d="M41.6499 70H328.284L292.811 7.81204C289.955 2.67254 286.102 0 281.652 0H88.2819C83.8312 0 80.0449 2.67254 77.1221 7.81204L41.6499 70Z" fill="url(#paint0_linear_24_1221)"/>
<path fill-rule="evenodd" clip-rule="evenodd" d="M368.472 70H1.52783L0 64.2438H48.8241C54.2711 64.2438 58.9874 60.0294 61.7109 52.8341L78.3178 8.63436C80.377 3.0837 83.8977 0 88.0162 0H281.984C286.102 0 289.557 3.0837 291.616 8.63436L308.223 52.8341C310.946 60.1322 315.662 64.2438 321.109 64.2438H369.934L368.472 70Z" fill="url(#paint1_linear_24_1221)"/>
<path fill-rule="evenodd" clip-rule="evenodd" d="M86.754 10.7929L69.8815 55.6094C69.2172 57.4596 69.2172 59.5154 69.8815 61.3656C70.5458 63.2158 71.7415 64.2437 73.1364 64.2437H296.996C298.391 64.2437 299.521 63.2158 300.251 61.3656C300.916 59.5154 300.916 57.4596 300.251 55.6094L283.379 10.7929C282.781 9.1483 281.984 7.91482 280.987 7.0925C280.057 6.27018 278.928 5.75623 277.732 5.75623H92.3339C91.1382 5.75623 90.009 6.16739 89.079 7.0925C88.149 7.91482 87.3519 9.1483 86.754 10.7929Z" fill="url(#paint2_linear_24_1221)"/>
<path fill-rule="evenodd" clip-rule="evenodd" d="M73.0698 58.4875H296.93L280.057 13.671C279.526 12.232 278.729 11.5125 277.666 11.5125H92.3337C91.8023 11.5125 91.3373 11.718 90.9388 12.0264C90.5402 12.3348 90.2081 12.9515 89.9424 13.671L73.0698 58.4875Z" fill="url(#paint3_linear_24_1221)"/>
<path d="M89.2117 15.6241L119.038 15.8297L89.0788 16.0352L89.2117 15.6241ZM87.6174 19.8385L119.038 20.0441L87.4181 20.2496L87.6174 19.8385ZM86.0232 24.0529L119.038 24.2584L85.8239 24.464L86.0232 24.0529ZM84.4289 28.37L119.038 28.5756L84.2296 28.7812L84.4289 28.37ZM82.8347 32.5844L119.038 32.8928L82.6354 33.2012L82.8347 32.5844ZM81.2404 36.9016L119.104 37.21L81.0411 37.5184L81.2404 36.9016ZM79.5797 41.116L119.038 41.4244L79.3804 41.7328L79.5797 41.116ZM77.9855 45.4332L119.038 45.7416L77.7862 46.0499L77.9855 45.4332ZM76.3912 49.6476L119.038 49.956L76.1919 50.2643L76.3912 49.6476ZM74.797 53.862L119.038 54.1703L74.5312 54.4787L74.797 53.862Z" fill="url(#paint4_linear_24_1221)"/>
<path opacity="0.5" d="M280.788 15.6241L250.962 15.8297L280.921 16.0352L280.788 15.6241ZM282.383 19.8385L250.962 20.0441L282.582 20.2496L282.383 19.8385ZM283.977 24.0529L250.962 24.2584L284.176 24.464L283.977 24.0529ZM285.571 28.37L250.962 28.5756L285.77 28.7812L285.571 28.37ZM287.165 32.5844L250.962 32.8928L287.365 33.2012L287.165 32.5844ZM288.76 36.9016L250.896 37.21L288.959 37.5184L288.76 36.9016ZM290.354 41.116L250.896 41.4244L290.553 41.7328L290.354 41.116ZM291.948 45.4332L250.896 45.7416L292.147 46.0499L291.948 45.4332ZM293.609 49.6476L250.962 49.956L293.808 50.2643L293.609 49.6476ZM295.203 53.862L250.962 54.1703L295.469 54.4787L295.203 53.862Z" fill="url(#paint5_linear_24_1221)"/>
<path fill-rule="evenodd" clip-rule="evenodd" d="M296.93 58.4875L299.986 61.7768C300.052 61.674 299.786 62.3936 300.119 61.3657C300.517 60.3378 300.783 57.4596 300.119 55.6094L283.246 10.793C282.648 9.14833 281.851 7.91485 280.855 7.09253L278.995 12.1292C279.393 12.5404 279.725 13.0544 279.991 13.7739L280.722 15.7269L280.855 16.1381L282.316 19.9413L282.515 20.3524L283.977 24.1557L284.176 24.6696L285.571 28.4729L285.77 28.9868L287.165 32.79L287.364 33.304L288.759 37.0044L288.959 37.5184L290.354 41.116L290.553 41.7328L291.948 45.4332L292.147 46.0499L293.542 49.7504L293.808 50.3671L295.203 53.9648L295.469 54.5815L296.93 58.4875Z" fill="url(#paint6_linear_24_1221)"/>
<path fill-rule="evenodd" clip-rule="evenodd" d="M92.334 11.5125H277.6C278.131 11.5125 278.596 11.7181 278.995 12.0264L280.855 6.98971C279.925 6.16739 278.795 5.65344 277.6 5.65344H92.334C91.1383 5.65344 90.0091 6.0646 89.0791 6.98971L90.9391 12.0264C91.3376 11.7181 91.8026 11.5125 92.334 11.5125Z" fill="url(#paint7_linear_24_1221)"/>
<path fill-rule="evenodd" clip-rule="evenodd" d="M87.6176 19.8385L89.079 16.0353L89.2119 15.6241L89.9426 13.6711C90.2083 12.9516 90.5404 12.4376 90.939 12.0265L89.079 6.98975C88.149 7.81207 87.2855 9.14834 86.6876 10.6902L69.8151 55.5066C69.1508 57.3569 69.1508 59.4127 69.8151 61.2629L73.07 58.4875L74.5314 54.5815L74.7971 53.9648L76.1921 50.3671L76.4578 49.7504L77.8528 46.0499L78.0521 45.4332L79.4471 41.7328L79.5799 41.116L80.9749 37.4156L81.1742 36.9016L82.5691 33.2012L82.7684 32.6872L84.1634 28.884L84.3627 28.3701L85.7576 24.5668L85.9569 24.0529L87.4183 20.2497L87.6176 19.8385Z" fill="url(#paint8_linear_24_1221)"/>
<path fill-rule="evenodd" clip-rule="evenodd" d="M185 4.9339C219.077 4.9339 251.361 5.24227 280.057 5.75622H89.9424C118.639 5.24227 150.856 4.9339 185 4.9339Z" fill="white"/>
<defs>
<linearGradient id="paint0_linear_24_1221" x1="184.994" y1="70.0288" x2="184.994" y2="0" gradientUnits="userSpaceOnUse">
<stop stop-color="#273F5E"/>
<stop offset="1" stop-color="#4E688C"/>
</linearGradient>
<linearGradient id="paint1_linear_24_1221" x1="184.994" y1="70.0288" x2="184.994" y2="0" gradientUnits="userSpaceOnUse">
<stop stop-color="#4E76A6"/>
<stop offset="1" stop-color="#87B5F5"/>
</linearGradient>
<linearGradient id="paint2_linear_24_1221" x1="184.993" y1="64.2633" x2="184.993" y2="5.76445" gradientUnits="userSpaceOnUse">
<stop stop-color="#87B5F5"/>
<stop offset="1" stop-color="#3A587D"/>
</linearGradient>
<linearGradient id="paint3_linear_24_1221" x1="184.993" y1="58.4968" x2="184.993" y2="11.531" gradientUnits="userSpaceOnUse">
<stop stop-color="#004DCA"/>
<stop offset="0.0144" stop-color="#004BC0"/>
<stop offset="0.0906" stop-color="#004392"/>
<stop offset="0.1581" stop-color="#003C70"/>
<stop offset="0.2139" stop-color="#00385B"/>
<stop offset="0.2509" stop-color="#003754"/>
<stop offset="0.3591" stop-color="#003859"/>
<stop offset="0.4951" stop-color="#003B69"/>
<stop offset="0.646" stop-color="#004083"/>
<stop offset="0.8077" stop-color="#0046A6"/>
<stop offset="0.9763" stop-color="#004FD4"/>
<stop offset="1" stop-color="#0050DB"/>
</linearGradient>
<linearGradient id="paint4_linear_24_1221" x1="74.5625" y1="35.0678" x2="119.048" y2="35.0678" gradientUnits="userSpaceOnUse">
<stop offset="1.1e-07" stop-color="#0098CF"/>
<stop offset="1"/>
</linearGradient>
<linearGradient id="paint5_linear_24_1221" x1="250.937" y1="35.0678" x2="295.423" y2="35.0678" gradientUnits="userSpaceOnUse">
<stop offset="1.2e-07"/>
<stop offset="1" stop-color="#0098CF"/>
</linearGradient>
<linearGradient id="paint6_linear_24_1221" x1="289.785" y1="61.895" x2="289.785" y2="7.07505" gradientUnits="userSpaceOnUse">
<stop stop-color="#739CB0"/>
<stop offset="1" stop-color="#476B96"/>
</linearGradient>
<linearGradient id="paint7_linear_24_1221" x1="184.993" y1="12.0737" x2="184.993" y2="5.76446" gradientUnits="userSpaceOnUse">
<stop stop-color="#4680B0"/>
<stop offset="1" stop-color="#2C507A"/>
</linearGradient>
<linearGradient id="paint8_linear_24_1221" x1="80.1445" y1="61.3708" x2="80.1445" y2="7.07506" gradientUnits="userSpaceOnUse">
<stop stop-color="#739CB0"/>
<stop offset="1" stop-color="#476B96"/>
</linearGradient>
</defs>
</svg>
